<svg width="340" height="76" viewBox="0 0 340 76" fill="none" xmlns="http://www.w3.org/2000/svg">
<g clip-path="url(#clip0_140_1205)">
<path d="M74.0992 19.8632C69.9923 8.15576 59.7251 0 42.0304 0C24.3795 0 14.1123 8.19961 9.96176 19.8632C8.51998 23.9412 7.82092 28.4574 7.82092 33.1931C7.82092 42.9273 9.13163 49.8116 11.4035 54.6787C16.9959 66.5176 28.6175 67 41.9869 67C55.3561 67 66.9777 66.5176 72.5701 54.6787C74.8858 49.8116 76.1527 42.9273 76.1527 33.1931C76.1965 28.4574 75.4974 23.9412 74.0992 19.8632ZM68.507 51.1269C63.9193 60.7296 53.7833 62.8782 42.0304 62.8782C30.2778 62.8782 20.1416 60.7296 15.5541 51.1269C13.8939 47.6192 12.9327 43.1905 12.9327 37.6218C12.9327 32.4477 13.6317 27.6243 15.6415 23.5903C19.1804 16.4431 26.8263 11.7075 42.0304 11.7075C57.2348 11.7075 64.8806 16.4431 68.4194 23.5903C70.4292 27.6243 71.1283 32.4477 71.1283 37.6218C71.1283 43.1465 70.1671 47.5752 68.507 51.1269Z" fill="#172B4D"/>
<path d="M5.37392 33.1791C5.37392 28.268 6.11664 23.7079 7.60211 19.63C7.64581 19.5423 7.60213 19.4546 7.55844 19.3669C7.51474 19.2792 7.42735 19.2792 7.33998 19.2792C3.14569 20.1561 0 27.9173 0 37.3447C0 47.3421 3.62629 55.4977 8.12639 55.4977C8.43222 55.4977 8.69438 55.4539 9.00022 55.4102C9.08759 55.4102 9.13128 55.3662 9.17498 55.2785C9.21866 55.1907 9.21866 55.147 9.17498 55.0593C6.64094 49.8414 5.37392 42.6942 5.37392 33.1791Z" fill="#172B4D"/>
<path d="M76.7207 19.2466C76.6332 19.2466 76.5458 19.2466 76.5021 19.3343C76.4585 19.422 76.4148 19.5097 76.4585 19.5974C77.9441 23.6753 78.6867 28.2355 78.6867 33.1464C78.6867 42.6614 77.4633 49.8087 74.9293 55.0267C74.8857 55.1144 74.8857 55.1582 74.9293 55.2459C74.973 55.3337 75.0168 55.3774 75.1041 55.3774C75.3662 55.4214 75.6721 55.4651 75.9778 55.4651C80.4344 55.4651 84.1043 47.3094 84.1043 37.3121C84.0607 27.8846 80.9149 20.1235 76.7207 19.2466Z" fill="#172B4D"/>
<path d="M114.294 22.9418C119.318 22.9418 122.77 25.6604 123.775 30.3083L127.925 29.3875C126.571 23.1611 121.415 19.1709 114.338 19.1709C106.299 19.1709 98.6965 24.5643 98.6965 35.7016C98.6965 46.8391 106.255 52.2324 114.338 52.2324C121.284 52.2324 126.309 48.3738 127.925 42.2789L123.731 41.402C122.595 45.8745 119.318 48.4615 114.294 48.4615C107.784 48.4615 103.022 43.9891 103.022 35.7016C103.022 27.4583 107.74 22.9418 114.294 22.9418Z" fill="#172B4D"/>
<path d="M143.262 28.243C136.359 28.243 131.509 33.2854 131.509 40.2574C131.509 47.2292 136.402 52.2718 143.262 52.2718C150.121 52.2718 155.102 47.2292 155.102 40.2574C155.058 33.2854 150.121 28.243 143.262 28.243ZM143.262 48.7639C138.631 48.7639 135.485 45.256 135.485 40.2574C135.485 35.2586 138.631 31.7507 143.262 31.7507C147.893 31.7507 151.039 35.2586 151.039 40.2574C151.039 45.256 147.893 48.7639 143.262 48.7639Z" fill="#172B4D"/>
<path d="M177.471 31.9186C175.986 29.7702 172.971 28.2355 169.869 28.2355C162.704 28.2355 158.728 33.4096 158.728 40.2499C158.728 47.0902 162.704 52.2642 169.912 52.2642C173.32 52.2642 176.379 50.6418 177.471 48.5371V51.9135H181.359V19.2466H177.471V31.9186ZM170.306 48.7564C165.762 48.7564 162.747 45.3802 162.747 40.2499C162.747 35.1196 165.718 31.7434 170.306 31.7434C174.849 31.7434 177.864 35.1196 177.864 40.2499C177.821 45.3802 174.849 48.7564 170.306 48.7564Z" fill="#172B4D"/>
<path d="M197.612 28.243C190.621 28.243 186.383 33.6363 186.383 40.2574C186.383 46.8785 190.752 52.2718 197.699 52.2718C203.029 52.2718 206.918 49.641 208.054 45.1245L204.384 44.2475C203.685 47.1414 201.238 48.8076 197.699 48.8076C193.505 48.8076 190.578 45.6944 190.315 41.0028H208.622C208.665 40.6081 208.709 39.775 208.709 39.2051C208.709 33.1979 204.471 28.243 197.612 28.243ZM190.534 37.7141C191.32 33.8555 193.985 31.5315 197.612 31.5315C201.719 31.5315 204.209 34.1625 204.558 37.7141H190.534Z" fill="#172B4D"/>
<path d="M217.403 27.6654C217.403 24.7714 219.894 22.9737 224.044 22.9737C228.108 22.9737 230.859 25.2098 231.517 28.7177L235.317 27.227C234.486 22.4475 229.942 19.2466 224.044 19.2466C217.71 19.2466 213.209 22.6668 213.209 27.7094C213.209 39.1536 231.517 34.6374 231.517 43.2753C231.517 46.5202 228.675 48.5811 224.264 48.5811C219.982 48.5811 216.53 45.6432 215.874 41.083L211.898 42.3545C212.947 48.2742 217.928 52.2642 224.132 52.2642C231.167 52.2642 235.796 48.6686 235.796 43.1876C235.796 30.2524 217.403 35.0318 217.403 27.6654Z" fill="#172B4D"/>
<path d="M250.915 48.7639C246.372 48.7639 243.401 45.3875 243.401 40.2574C243.401 35.1271 246.328 31.7507 250.915 31.7507C254.192 31.7507 256.637 33.7678 257.119 36.618L260.963 35.8287C260.134 31.2245 256.202 28.243 250.783 28.243C243.88 28.243 239.293 33.0224 239.293 40.2574C239.293 47.4484 243.88 52.2718 250.783 52.2718C256.114 52.2718 260.002 49.4655 261.007 44.6421L257.207 43.853C256.552 46.9662 254.192 48.7639 250.915 48.7639Z" fill="#172B4D"/>
<path d="M275.774 28.243C268.783 28.243 264.546 33.6363 264.546 40.2574C264.546 46.8785 268.915 52.2718 275.862 52.2718C281.191 52.2718 285.079 49.641 286.216 45.1245L282.546 44.2475C281.846 47.1414 279.401 48.8076 275.862 48.8076C271.666 48.8076 268.739 45.6944 268.478 41.0028H286.783C286.827 40.6081 286.871 39.775 286.871 39.2051C286.871 33.1979 282.633 28.243 275.774 28.243ZM268.695 37.7141C269.483 33.8555 272.148 31.5315 275.774 31.5315C279.88 31.5315 282.372 34.1625 282.721 37.7141H268.695Z" fill="#172B4D"/>
<path d="M303.736 28.243C300.198 28.243 297.401 30.2162 295.784 32.9785V28.5937H291.896V51.8771H295.784V41.6604C295.784 35.5218 298.538 31.7947 302.861 31.7947C306.14 31.7947 308.106 34.0748 308.106 37.188V51.8771H311.994V36.4426C312.038 31.5315 308.586 28.243 303.736 28.243Z" fill="#172B4D"/>
<path d="M339.187 39.5538C339.187 33.5466 334.95 28.6357 328.09 28.6357C321.099 28.6357 316.862 34.029 316.862 40.6501C316.862 47.2712 321.231 52.6645 328.178 52.6645C333.507 52.6645 337.395 50.0337 338.532 45.5172L334.862 44.6402C334.162 47.5341 331.717 49.2003 328.178 49.2003C323.983 49.2003 321.055 46.0871 320.794 41.3955H339.099C339.143 40.9131 339.187 40.08 339.187 39.5538ZM321.011 38.0631C321.799 34.2043 324.464 31.8804 328.09 31.8804C332.196 31.8804 334.688 34.5112 335.038 38.0631H321.011Z" fill="#172B4D"/>
</g>
<path d="M260.414 62.4278L258.749 66.8238H262.078L260.414 62.4278ZM255.28 71L259.55 60.01H261.261L265.548 71H263.648L262.674 68.4095H258.153L257.179 71H255.28ZM272.967 71.1256C270.125 71.1256 267.566 69.2573 267.566 65.505C267.566 61.7527 270.157 59.8844 272.967 59.8844C275.51 59.8844 277.347 61.2817 277.74 63.464L275.919 63.8565C275.605 62.3807 274.49 61.4858 272.967 61.4858C270.957 61.4858 269.435 62.8988 269.435 65.505C269.435 68.1112 270.942 69.5085 272.967 69.5085C274.506 69.5085 275.542 68.6764 275.887 67.2948L277.724 67.6873C277.19 69.8068 275.432 71.1256 272.967 71.1256ZM285.057 62.4278L283.392 66.8238H286.721L285.057 62.4278ZM279.923 71L284.193 60.01H285.904L290.19 71H288.291L287.317 68.4095H282.796L281.822 71H279.923ZM293.048 71V60.01H296.502C299.564 60.01 302.092 61.8783 302.092 65.505C302.092 69.1317 299.564 71 296.502 71H293.048ZM294.854 69.3829H296.377C298.355 69.3829 300.208 68.3153 300.208 65.505C300.208 62.6947 298.355 61.6114 296.377 61.6114H294.854V69.3829ZM305.477 71V60.01H312.652V61.6114H307.314V64.3746H311.616V65.976H307.314V69.3829H312.825V71H305.477ZM316.235 71V60.01H318.354L321.855 68.3624L325.356 60.01H327.476V71H325.718V63.4483L322.578 71H321.149L317.993 63.4483V71H316.235ZM334.141 71V66.4313L330.326 60.01H332.335L335.051 64.6886L337.783 60.01H339.793L335.978 66.4313V71H334.141Z" fill="#172B4D"/>
<defs>
<clipPath id="clip0_140_1205">
<rect width="339.188" height="67" fill="white"/>
</clipPath>
</defs>
</svg>
