<svg width="160" height="160" viewBox="0 0 160 160" fill="none" xmlns="http://www.w3.org/2000/svg">
<path d="M82.3878 30.2434L116.695 41.3673C118.157 41.8416 119.432 42.7666 120.335 44.0097C121.239 45.2527 121.727 46.7501 121.727 48.2871V78.9163C121.727 104.657 106.045 123.429 82.6331 132.27C81.0272 132.873 79.2571 132.873 77.6512 132.27C54.2348 123.433 38.5573 104.657 38.5573 78.9163V48.2871C38.5573 45.1349 40.5908 42.3404 43.589 41.3673L77.8966 30.2434C79.3561 29.7693 80.9282 29.7693 82.3878 30.2434Z" fill="#172B4D"/>
<mask id="mask0_140_1225" style="mask-type:alpha" maskUnits="userSpaceOnUse" x="38" y="89" width="84" height="44">
<rect x="38.4558" y="89.3632" width="83.3727" height="43.2077" fill="#D9D9D9"/>
</mask>
<g mask="url(#mask0_140_1225)">
<path d="M82.0055 40.8451L82.0059 40.8453L116.313 51.9692C117.593 52.3842 118.708 53.1937 119.499 54.2815C120.29 55.3692 120.716 56.6794 120.717 58.0242C120.717 58.0244 120.717 58.0245 120.717 58.0246V78.9165C120.717 104.216 105.333 122.688 82.2105 131.42C80.8115 131.944 79.2697 131.944 77.8708 131.419C54.7449 122.692 39.3649 104.216 39.3649 78.9165V58.0242C39.3649 55.2666 41.1442 52.8208 43.7682 51.9692L78.0755 40.8453L78.076 40.8451C79.353 40.4304 80.7285 40.4304 82.0055 40.8451Z" fill="white" stroke="#172B4D" stroke-width="1.81811"/>
</g>
<path d="M80.2015 111.863C80.2891 111.863 80.3749 111.888 80.4494 111.934C80.5238 111.98 80.5838 112.046 80.6225 112.125L81.7999 114.511L84.4337 114.894C84.5204 114.907 84.6017 114.943 84.6687 115C84.7356 115.056 84.7854 115.13 84.8125 115.213C84.8396 115.297 84.8428 115.386 84.8219 115.471C84.8009 115.556 84.7566 115.633 84.694 115.694L82.7884 117.552L83.2382 120.175C83.2528 120.261 83.243 120.35 83.21 120.431C83.1769 120.512 83.122 120.582 83.0512 120.633C82.9805 120.685 82.8968 120.715 82.8096 120.722C82.7224 120.728 82.6351 120.71 82.5575 120.67L80.2015 119.431L77.8454 120.67C77.768 120.711 77.6807 120.729 77.5934 120.722C77.5062 120.716 77.4224 120.686 77.3516 120.634C77.2808 120.583 77.2258 120.513 77.1928 120.432C77.1598 120.351 77.1501 120.262 77.1648 120.176L77.6152 117.552L75.7084 115.694C75.6455 115.633 75.6011 115.556 75.58 115.471C75.559 115.386 75.5622 115.296 75.5893 115.213C75.6163 115.13 75.6662 115.056 75.7333 114.999C75.8003 114.943 75.8819 114.906 75.9686 114.894L78.6024 114.511L79.7805 112.125C79.8192 112.046 79.8792 111.98 79.9536 111.934C80.028 111.888 80.1139 111.863 80.2015 111.863Z" fill="#172B4D"/>
<path d="M91.5567 102.2C91.6443 102.2 91.7302 102.224 91.8046 102.27C91.879 102.317 91.939 102.383 91.9778 102.461L93.1551 104.848L95.789 105.231C95.8756 105.243 95.957 105.28 96.0239 105.336C96.0908 105.393 96.1407 105.467 96.1677 105.55C96.1948 105.633 96.1981 105.723 96.1771 105.808C96.1562 105.892 96.1119 105.97 96.0492 106.031L94.1436 107.889L94.5934 110.512C94.608 110.598 94.5982 110.687 94.5652 110.767C94.5322 110.848 94.4772 110.919 94.4065 110.97C94.3357 111.021 94.252 111.052 94.1648 111.059C94.0776 111.065 93.9903 111.047 93.9128 111.007L91.5567 109.768L89.2007 111.007C89.1232 111.047 89.0359 111.065 88.9487 111.059C88.8614 111.053 88.7777 111.022 88.7069 110.971C88.6361 110.919 88.5811 110.849 88.548 110.768C88.515 110.687 88.5053 110.599 88.52 110.512L88.9704 107.889L87.0636 106.031C87.0008 105.97 86.9563 105.892 86.9352 105.807C86.9142 105.722 86.9174 105.633 86.9445 105.55C86.9716 105.466 87.0215 105.392 87.0885 105.336C87.1556 105.279 87.2371 105.243 87.3238 105.23L89.9577 104.848L91.1357 102.461C91.1745 102.383 91.2344 102.317 91.3089 102.27C91.3833 102.224 91.4691 102.2 91.5567 102.2Z" fill="#172B4D"/>
<path d="M68.9431 102.2C69.0307 102.2 69.1166 102.224 69.191 102.27C69.2654 102.317 69.3254 102.383 69.3642 102.461L70.5416 104.848L73.1754 105.231C73.262 105.243 73.3434 105.28 73.4103 105.336C73.4772 105.393 73.5271 105.467 73.5541 105.55C73.5812 105.633 73.5845 105.722 73.5635 105.807C73.5426 105.892 73.4983 105.97 73.4356 106.031L71.53 107.889L71.9798 110.512C71.9944 110.598 71.9847 110.686 71.9516 110.767C71.9186 110.848 71.8636 110.919 71.7929 110.97C71.7221 111.021 71.6384 111.052 71.5512 111.058C71.464 111.065 71.3767 111.047 71.2992 111.006L68.9431 109.768L66.5871 111.006C66.5096 111.047 66.4223 111.065 66.3351 111.059C66.2478 111.053 66.1641 111.022 66.0933 110.971C66.0225 110.919 65.9675 110.849 65.9345 110.768C65.9014 110.687 65.8917 110.598 65.9064 110.512L66.3569 107.888L64.45 106.031C64.3872 105.97 64.3427 105.892 64.3217 105.807C64.3006 105.722 64.3038 105.633 64.3309 105.55C64.358 105.466 64.4079 105.392 64.4749 105.336C64.542 105.279 64.6235 105.243 64.7103 105.23L67.3441 104.848L68.5221 102.461C68.5609 102.383 68.6209 102.317 68.6953 102.27C68.7697 102.224 68.8555 102.2 68.9431 102.2Z" fill="#172B4D"/>
<path d="M51.825 47.4973C53.1791 47.4973 54.1092 48.2203 54.3801 49.4564L55.4986 49.2115C55.1337 47.5556 53.7442 46.4944 51.8368 46.4944C49.6703 46.4944 47.6216 47.9288 47.6216 50.8908C47.6216 53.8529 49.6585 55.2872 51.8368 55.2872C53.7089 55.2872 55.063 54.261 55.4986 52.6401L54.3683 52.4069C54.0622 53.5963 53.1791 54.2844 51.825 54.2844C50.0706 54.2844 48.7872 53.0949 48.7872 50.8908C48.7872 48.6984 50.0589 47.4973 51.825 47.4973Z" fill="white"/>
<path d="M59.6317 48.9072C57.7714 48.9072 56.4644 50.2482 56.4644 52.1025C56.4644 53.9566 57.7831 55.2977 59.6317 55.2977C61.4804 55.2977 62.8226 53.9566 62.8226 52.1025C62.8108 50.2482 61.4804 48.9072 59.6317 48.9072ZM59.6317 54.3648C58.3836 54.3648 57.5359 53.4319 57.5359 52.1025C57.5359 50.773 58.3836 49.8401 59.6317 49.8401C60.8799 49.8401 61.7276 50.773 61.7276 52.1025C61.7276 53.4319 60.8799 54.3648 59.6317 54.3648Z" fill="white"/>
<path d="M68.851 49.8847C68.4507 49.3133 67.6382 48.9052 66.8023 48.9052C64.8713 48.9052 63.7998 50.2812 63.7998 52.1005C63.7998 53.9197 64.8713 55.2957 66.814 55.2957C67.7325 55.2957 68.5567 54.8642 68.851 54.3045V55.2025H69.899V46.5145H68.851V49.8847ZM66.92 54.3628C65.6955 54.3628 64.883 53.4649 64.883 52.1005C64.883 50.736 65.6837 49.8381 66.92 49.8381C68.1446 49.8381 68.957 50.736 68.957 52.1005C68.9452 53.4649 68.1446 54.3628 66.92 54.3628Z" fill="white"/>
<path d="M74.2789 48.9072C72.395 48.9072 71.2528 50.3416 71.2528 52.1025C71.2528 53.8634 72.4303 55.2977 74.3024 55.2977C75.7389 55.2977 76.7868 54.5981 77.093 53.3969L76.104 53.1636C75.9155 53.9333 75.2562 54.3764 74.3024 54.3764C73.1721 54.3764 72.3832 53.5485 72.3126 52.3007H77.2461C77.2578 52.1957 77.2696 51.9742 77.2696 51.8226C77.2696 50.225 76.1275 48.9072 74.2789 48.9072ZM72.3714 51.4261C72.5834 50.3999 73.3016 49.7818 74.2789 49.7818C75.3857 49.7818 76.0568 50.4815 76.151 51.4261H72.3714Z" fill="white"/>
<path d="M79.6125 48.7536C79.6125 47.9839 80.284 47.5058 81.4023 47.5058C82.4976 47.5058 83.239 48.1005 83.4162 49.0334L84.4403 48.6369C84.2163 47.3658 82.9919 46.5145 81.4023 46.5145C79.6955 46.5145 78.4823 47.4241 78.4823 48.7652C78.4823 51.8089 83.4162 50.6078 83.4162 52.9051C83.4162 53.7681 82.6505 54.3162 81.4616 54.3162C80.3077 54.3162 79.3772 53.5348 79.2006 52.322L78.1291 52.6602C78.4118 54.2346 79.7541 55.2957 81.426 55.2957C83.322 55.2957 84.5695 54.3395 84.5695 52.8818C84.5695 49.4416 79.6125 50.7127 79.6125 48.7536Z" fill="white"/>
<path d="M88.6441 54.3648C87.4196 54.3648 86.6189 53.4668 86.6189 52.1025C86.6189 50.738 87.4078 49.8401 88.6441 49.8401C89.5271 49.8401 90.1862 50.3765 90.316 51.1346L91.3519 50.9246C91.1285 49.7001 90.0688 48.9072 88.6085 48.9072C86.7481 48.9072 85.5119 50.1783 85.5119 52.1025C85.5119 54.0149 86.7481 55.2977 88.6085 55.2977C90.0451 55.2977 91.093 54.5514 91.3638 53.2686L90.3397 53.0587C90.163 53.8867 89.5271 54.3648 88.6441 54.3648Z" fill="white"/>
<path d="M95.3435 48.9072C93.4595 48.9072 92.3174 50.3416 92.3174 52.1025C92.3174 53.8634 93.495 55.2977 95.3672 55.2977C96.8033 55.2977 97.8511 54.5981 98.1575 53.3969L97.1684 53.1636C96.9799 53.9333 96.3208 54.3764 95.3672 54.3764C94.2365 54.3764 93.4476 53.5485 93.3771 52.3007H98.3104C98.3223 52.1957 98.3341 51.9742 98.3341 51.8226C98.3341 50.225 97.192 48.9072 95.3435 48.9072ZM93.4358 51.4261C93.6479 50.3999 94.3662 49.7818 95.3435 49.7818C96.45 49.7818 97.1215 50.4815 97.2158 51.4261H93.4358Z" fill="white"/>
<path d="M102.879 48.9072C101.926 48.9072 101.172 49.432 100.736 50.1666V49.0005H99.6883V55.1928H100.736V52.4756C100.736 50.843 101.478 49.8518 102.643 49.8518C103.527 49.8518 104.057 50.4582 104.057 51.2861V55.1928H105.105V51.0879C105.117 49.7818 104.186 48.9072 102.879 48.9072Z" fill="white"/>
<path d="M112.433 51.9153C112.433 50.3177 111.291 49.0116 109.443 49.0116C107.559 49.0116 106.416 50.446 106.416 52.2069C106.416 53.9678 107.594 55.4021 109.466 55.4021C110.902 55.4021 111.95 54.7025 112.257 53.5013L111.267 53.268C111.079 54.0377 110.42 54.4808 109.466 54.4808C108.336 54.4808 107.547 53.6529 107.476 52.4051H112.409C112.421 52.2768 112.433 52.0552 112.433 51.9153ZM107.535 51.5188C107.747 50.4926 108.465 49.8745 109.443 49.8745C110.549 49.8745 111.221 50.5742 111.315 51.5188H107.535Z" fill="white"/>
<path d="M68.9851 60.3752L68.4896 61.6841H69.4806L68.9851 60.3752ZM67.4565 62.9275L68.728 59.6553H69.2376L70.5137 62.9275H69.9481L69.6583 62.1562H68.312L68.0222 62.9275H67.4565ZM72.7228 62.9649C71.8767 62.9649 71.1148 62.4086 71.1148 61.2914C71.1148 60.1742 71.8861 59.6179 72.7228 59.6179C73.4801 59.6179 74.027 60.0339 74.1439 60.6837L73.6016 60.8006C73.5081 60.3611 73.1763 60.0947 72.7228 60.0947C72.1245 60.0947 71.671 60.5154 71.671 61.2914C71.671 62.0674 72.1198 62.4834 72.7228 62.4834C73.1809 62.4834 73.4895 62.2357 73.5923 61.8243L74.1392 61.9412C73.9803 62.5722 73.4567 62.9649 72.7228 62.9649ZM76.3224 60.3752L75.8269 61.6841H76.8179L76.3224 60.3752ZM74.7938 62.9275L76.0653 59.6553H76.5748L77.851 62.9275H77.2854L76.9955 62.1562H75.6493L75.3594 62.9275H74.7938ZM78.7019 62.9275V59.6553H79.7303C80.6419 59.6553 81.3945 60.2116 81.3945 61.2914C81.3945 62.3712 80.6419 62.9275 79.7303 62.9275H78.7019ZM79.2395 62.446H79.6929C80.2819 62.446 80.8335 62.1281 80.8335 61.2914C80.8335 60.4546 80.2819 60.1321 79.6929 60.1321H79.2395V62.446ZM82.4025 62.9275V59.6553H84.5388V60.1321H82.9495V60.9548H84.2303V61.4316H82.9495V62.446H84.5902V62.9275H82.4025ZM85.6055 62.9275V59.6553H86.2366L87.279 62.1422L88.3215 59.6553H88.9525V62.9275H88.429V60.679L87.4941 62.9275H87.0687L86.1291 60.679V62.9275H85.6055ZM90.937 62.9275V61.5672L89.801 59.6553H90.3994L91.2081 61.0483L92.0215 59.6553H92.6198L91.4839 61.5672V62.9275H90.937Z" fill="white"/>
<rect x="33.3322" y="68.6904" width="93.679" height="24.9117" rx="3.27518" fill="white" stroke="#172B4D" stroke-width="1.78646"/>
<path d="M47.4699 85.5863C45.2042 85.5863 43.2079 84.1044 43.2079 81.2018C43.2079 78.2993 45.2409 76.8174 47.4699 76.8174C49.5274 76.8174 50.9848 77.9441 51.2787 79.671L49.6254 80.0139C49.4049 78.9239 48.5721 78.2503 47.4699 78.2503C46.0247 78.2503 44.898 79.2791 44.898 81.2018C44.898 83.1246 46.0125 84.1411 47.4699 84.1411C48.5844 84.1411 49.3559 83.5288 49.5764 82.5245L51.2542 82.8919C50.8378 84.5698 49.4417 85.5863 47.4699 85.5863ZM52.3867 82.402C52.3867 80.7977 53.3909 79.2178 55.4362 79.2178C57.5181 79.2178 58.5346 80.761 58.5346 82.1938C58.5346 82.4143 58.5224 82.6715 58.5101 82.7939H53.9175C54.0522 83.737 54.6646 84.2881 55.5586 84.2881C56.269 84.2881 56.7956 83.9452 56.9548 83.3451L58.4122 83.737C58.0693 84.9004 56.9793 85.5863 55.5219 85.5863C53.4766 85.5863 52.3867 84.0064 52.3867 82.402ZM53.9665 81.6795H56.8813C56.8078 80.9447 56.3302 80.3935 55.4362 80.3935C54.6768 80.3935 54.138 80.8467 53.9665 81.6795ZM63.4862 80.7487C63.4862 80.7487 63.3148 80.6997 63.0698 80.6997C62.2126 80.6997 61.49 81.3855 61.49 83.2226V85.4883H59.9469V79.3158H61.49V80.4425C61.7717 79.7322 62.482 79.2178 63.2291 79.2178C63.4373 79.2178 63.5965 79.2546 63.5965 79.2546L63.4862 80.7487ZM68.829 85.427C68.5228 85.5373 68.1921 85.5863 67.837 85.5863C66.5878 85.5863 65.657 84.9127 65.657 83.4675V80.614H64.616V79.3158H65.657V77.5033H67.2001V79.3158H68.7555V80.614H67.2001V83.3206C67.2001 83.9084 67.5186 84.2268 67.9962 84.2268C68.2289 84.2268 68.4983 84.1901 68.7188 84.0799L68.829 85.427ZM70.1362 85.4883V79.3158H71.6794V85.4883H70.1362ZM69.9525 77.4175C69.9525 76.8909 70.3567 76.4745 70.9078 76.4745C71.4712 76.4745 71.8876 76.8909 71.8876 77.4175C71.8876 77.9564 71.4712 78.3728 70.9078 78.3728C70.3567 78.3728 69.9525 77.9564 69.9525 77.4175ZM73.9334 85.4883V80.614H72.9659V79.3158H73.9334V78.8382C73.9334 77.393 74.8519 76.6092 76.1011 76.6092C76.4318 76.6092 76.7502 76.6582 77.0319 76.7439L76.9339 78.0176C76.7257 77.9319 76.5052 77.8952 76.3215 77.8952C75.8072 77.8952 75.4398 78.2503 75.4398 78.8627V79.3158H79.2976V85.4883H77.7544V80.614H75.4398V85.4883H73.9334ZM77.5707 77.4175C77.5707 76.8909 77.9749 76.4745 78.526 76.4745C79.0894 76.4745 79.5058 76.8909 79.5058 77.4175C79.5058 77.9564 79.0894 78.3728 78.526 78.3728C77.9749 78.3728 77.5707 77.9564 77.5707 77.4175ZM83.8478 85.5863C81.9985 85.5863 80.7126 84.2881 80.7126 82.402C80.7126 80.516 81.9985 79.2178 83.8478 79.2178C85.4276 79.2178 86.5421 80.0384 86.7503 81.3488L85.2439 81.6427C85.1337 80.9936 84.6193 80.5528 83.8968 80.5528C82.9415 80.5528 82.3169 81.2753 82.3169 82.402C82.3169 83.5288 82.9415 84.2513 83.8968 84.2513C84.6193 84.2513 85.097 83.8594 85.2439 83.1981L86.7503 83.5043C86.5176 84.8025 85.4031 85.5863 83.8478 85.5863ZM91.7538 81.5203C91.7538 80.8222 91.2761 80.3935 90.5291 80.3935C89.8555 80.3935 89.3779 80.8099 89.3044 81.4713L87.9327 81.2263C88.1287 80.0016 89.2186 79.2178 90.5291 79.2178C92.1457 79.2178 93.2479 80.0874 93.2479 81.7285V85.4883H91.7538V84.5943C91.4109 85.1944 90.6638 85.5863 89.9045 85.5863C88.692 85.5863 87.847 84.8025 87.847 83.7492C87.847 82.5368 88.7655 81.8877 90.6026 81.6917L91.7538 81.5815V81.5203ZM89.3411 83.7002C89.3411 84.1289 89.684 84.4473 90.2474 84.4473C91.2027 84.4473 91.7538 83.7247 91.7538 82.8184V82.6837L90.5781 82.8184C89.7575 82.9164 89.3411 83.2593 89.3411 83.7002ZM98.5542 85.427C98.248 85.5373 97.9173 85.5863 97.5622 85.5863C96.313 85.5863 95.3822 84.9127 95.3822 83.4675V80.614H94.3412V79.3158H95.3822V77.5033H96.9253V79.3158H98.4807V80.614H96.9253V83.3206C96.9253 83.9084 97.2438 84.2268 97.7214 84.2268C97.9541 84.2268 98.2235 84.1901 98.444 84.0799L98.5542 85.427ZM99.8614 85.4883V79.3158H101.405V85.4883H99.8614ZM99.6777 77.4175C99.6777 76.8909 100.082 76.4745 100.633 76.4745C101.196 76.4745 101.613 76.8909 101.613 77.4175C101.613 77.9564 101.196 78.3728 100.633 78.3728C100.082 78.3728 99.6777 77.9564 99.6777 77.4175ZM106.034 85.5863C104.161 85.5863 102.814 84.2391 102.814 82.402C102.814 80.565 104.161 79.2178 106.034 79.2178C107.908 79.2178 109.255 80.565 109.255 82.402C109.255 84.2391 107.908 85.5863 106.034 85.5863ZM104.369 82.402C104.369 83.5043 105.03 84.2513 106.034 84.2513C107.026 84.2513 107.7 83.5043 107.7 82.402C107.7 81.2998 107.026 80.5528 106.034 80.5528C105.03 80.5528 104.369 81.2998 104.369 82.402ZM110.661 85.4883V79.3158H112.204V80.2466C112.596 79.6465 113.294 79.2178 114.163 79.2178C115.511 79.2178 116.417 80.0996 116.417 81.4468V85.4883H114.874V81.8142C114.874 81.0916 114.421 80.5895 113.698 80.5895C112.755 80.5895 112.204 81.3978 112.204 82.7817V85.4883H110.661Z" fill="#172B4D"/>
<rect opacity="0.2" x="42.998" y="93.05" width="75.8826" height="3.50902" fill="#172B4D"/>
<circle cx="80.0636" cy="80.0554" r="78.3869" stroke="#172B4D" stroke-width="1.51368"/>
<circle cx="80.0636" cy="80.0553" r="61.9527" stroke="#172B4D" stroke-width="1.51368"/>
<path d="M13.4681 70.4352C13.2401 71.8819 12.093 73.0074 10.2397 72.7153C8.38636 72.4232 7.64475 70.976 7.86906 69.5527C8.07612 68.239 8.94221 67.4218 10.0744 67.4079L10.127 68.4981C9.40881 68.5292 8.89491 68.9932 8.78398 69.6969C8.63855 70.6197 9.18203 71.4426 10.4097 71.6361C11.6375 71.8296 12.3987 71.2203 12.5453 70.2898C12.6575 69.5782 12.3441 69.0239 11.7251 68.7821L12.1285 67.7477C13.1579 68.1825 13.6665 69.1762 13.4681 70.4352Z" fill="#172B4D"/>
<path d="M15.1373 62.3206C14.686 63.8795 13.2076 64.6877 11.6336 64.232C10.0595 63.7764 9.24145 62.3033 9.69271 60.7445C10.1418 59.1932 11.6202 58.385 13.1942 58.8407C14.7683 59.2963 15.5863 60.7694 15.1373 62.3206ZM11.9351 63.1903C12.9921 63.4962 13.9604 63.0266 14.24 62.0609C14.5196 61.0951 13.9497 60.1884 12.8927 59.8824C11.8357 59.5765 10.862 60.0363 10.5824 61.002C10.3028 61.9678 10.8781 62.8843 11.9351 63.1903Z" fill="#172B4D"/>
<path d="M16.8902 56.4173L11.8008 54.2252L12.5179 52.5602C13.1223 51.157 14.4782 50.3102 16.1868 51.0461C17.8954 51.782 18.2117 53.349 17.6073 54.7523L16.8902 56.4173ZM16.4519 55.0735L16.7118 54.47C17.0876 53.5975 16.998 52.5849 15.7547 52.0494C14.5114 51.5139 13.7067 52.1414 13.331 53.0139L13.0711 53.6173L16.4519 55.0735Z" fill="#172B4D"/>
<path d="M20.103 49.1953L15.2902 46.4486L17.1266 43.2308L17.931 43.6899L16.6283 45.9726L17.6871 46.5769L18.7309 44.748L19.5422 45.211L18.4984 47.0399L19.8254 47.7972L21.1713 45.4389L21.9826 45.9019L20.103 49.1953Z" fill="#172B4D"/>
<path d="M24.7853 41.6386C24.1462 42.5246 23.0165 42.8321 22.1224 42.3531L22.4453 41.4049C23.0355 41.7233 23.7025 41.57 24.0638 41.0692C24.4019 40.6006 24.3995 40.1303 24.0592 39.8848C23.0898 39.1855 21.9172 41.961 20.2865 40.7845C19.5675 40.2658 19.5402 39.2212 20.1793 38.3352C20.7954 37.4813 21.7375 37.1361 22.5199 37.4858L22.2759 38.5006C21.7745 38.2755 21.2622 38.4038 20.9241 38.8725C20.6137 39.3026 20.61 39.7001 20.9118 39.9178C21.7271 40.5061 22.8559 37.6696 24.6792 38.985C25.4752 39.5593 25.5171 40.6242 24.7853 41.6386Z" fill="#172B4D"/>
<path d="M29.6506 35.4587C28.6646 36.5416 27.0876 36.8508 25.7003 35.5877C24.3131 34.3245 24.4895 32.7079 25.4596 31.6426C26.3549 30.6592 27.5277 30.453 28.4809 31.064L27.9253 32.0035C27.3084 31.6345 26.6241 31.7394 26.1444 32.2662C25.5155 32.9569 25.5168 33.9431 26.4358 34.7799C27.3548 35.6167 28.3257 35.5264 28.9599 34.8298C29.4449 34.2971 29.488 33.6619 29.104 33.1195L30.0097 32.4775C30.6305 33.4066 30.5087 34.5163 29.6506 35.4587Z" fill="#172B4D"/>
<path d="M33.4651 31.3258L29.8124 27.1586L32.5984 24.7165L33.2089 25.413L31.2325 27.1455L32.0361 28.0622L33.6196 26.6742L34.2354 27.3766L32.6519 28.7647L33.659 29.9136L35.7009 28.1238L36.3167 28.8262L33.4651 31.3258Z" fill="#172B4D"/>
<path d="M38.8173 26.6933L35.6509 22.1456L36.5474 21.5214L40.6948 23.3218L38.4964 20.1644L39.3215 19.5899L42.4879 24.1376L41.5914 24.7618L37.455 22.9634L39.6488 26.1143L38.8173 26.6933Z" fill="#172B4D"/>
<path d="M45.4641 22.1844L42.8254 17.3115L46.0833 15.5474L46.5243 16.3619L44.2132 17.6133L44.7937 18.6854L46.6454 17.6827L47.0902 18.5041L45.2385 19.5068L45.966 20.8503L48.3538 19.5574L48.7986 20.3788L45.4641 22.1844Z" fill="#172B4D"/>
<path d="M56.4489 12.5592L56.3828 14.6846L57.7794 14.2179L56.4489 12.5592ZM55.2582 17.3139L55.5218 11.3832L56.4753 11.0646L60.2512 15.6456L59.2 15.9968L58.3832 14.976L56.3485 15.6559L56.3093 16.9627L55.2582 17.3139Z" fill="#172B4D"/>
<path d="M65.4056 14.3622C63.9717 14.6601 62.5134 13.9848 62.1317 12.1478C61.75 10.3109 62.8418 9.10571 64.2525 8.81259C65.5546 8.54202 66.6251 9.06344 67.0382 10.1177L66.0369 10.5521C65.7541 9.89127 65.1385 9.57449 64.4409 9.71944C63.5263 9.90948 62.9485 10.7087 63.2014 11.9256C63.4542 13.1425 64.2932 13.6392 65.2156 13.4476C65.9209 13.301 66.3287 12.812 66.3361 12.1475L67.4463 12.1593C67.4034 13.276 66.6535 14.1029 65.4056 14.3622Z" fill="#172B4D"/>
<path d="M72.7537 8.9347L72.1901 10.9851L73.6572 10.8596L72.7537 8.9347ZM70.4793 13.2767L72.1288 7.5739L73.1305 7.48821L75.7245 12.828L74.6202 12.9225L74.0661 11.7384L71.9285 11.9212L71.5835 13.1822L70.4793 13.2767Z" fill="#172B4D"/>
<path d="M78.6966 12.644L78.8683 7.10525L80.6803 7.16143C82.2074 7.20877 83.4927 8.15943 83.4351 10.0189C83.3774 11.8783 82.0357 12.7476 80.5086 12.7002L78.6966 12.644ZM79.7859 11.7432L80.4426 11.7636C81.3921 11.793 82.3012 11.3381 82.3431 9.98503C82.3851 8.63198 81.5062 8.11369 80.5567 8.08425L79.8999 8.06389L79.7859 11.7432Z" fill="#172B4D"/>
<path d="M86.7238 12.9937L87.5101 7.50827L91.1775 8.03394L91.046 8.95079L88.4444 8.57787L88.2714 9.78466L90.3559 10.0834L90.2233 11.0081L88.1389 10.7093L87.9221 12.2217L90.6099 12.607L90.4774 13.5317L86.7238 12.9937Z" fill="#172B4D"/>
<path d="M93.7469 14.0102L95.1914 8.66031L96.3607 8.97603L96.95 13.2925L99.6318 9.85923L100.801 10.175L99.3566 15.5248L98.3784 15.2607L99.3008 11.8444L96.9416 14.8727L96.162 14.6623L95.6476 10.858L94.7252 14.2743L93.7469 14.0102Z" fill="#172B4D"/>
<path d="M103.997 17.1043L104.867 14.9797L104.338 11.2562L105.408 11.6941L105.749 14.246L107.789 12.6689L108.858 13.1068L105.863 15.3877L104.993 17.5122L103.997 17.1043Z" fill="#172B4D"/>
<path d="M115.402 22.8364C114.169 22.0473 113.598 20.5451 114.609 18.9645C115.619 17.384 117.243 17.2852 118.456 18.0615C119.577 18.7781 119.978 19.8992 119.537 20.9419L118.517 20.5528C118.776 19.8825 118.558 19.2256 117.957 18.8417C117.17 18.3384 116.199 18.5062 115.529 19.5532C114.859 20.6002 115.112 21.5419 115.906 22.0495C116.512 22.4376 117.146 22.3729 117.616 21.9029L118.401 22.6873C117.59 23.4559 116.476 23.5232 115.402 22.8364Z" fill="#172B4D"/>
<path d="M120.11 25.8925L123.603 21.5906L126.479 23.9259L125.895 24.645L123.855 22.9883L123.087 23.9347L124.721 25.262L124.132 25.9872L122.498 24.6599L121.535 25.846L123.643 27.5576L123.054 28.2827L120.11 25.8925Z" fill="#172B4D"/>
<path d="M125.579 30.405L129.512 26.502L131.016 28.0215C131.779 28.7925 131.818 29.7443 131.109 30.4458C130.665 30.8857 130.059 31.028 129.484 30.829L128.758 33.6184L127.873 32.7236L128.569 30.1971L127.951 29.5724L126.336 31.1704L125.579 30.405ZM128.609 28.921L129.233 29.5513C129.623 29.9453 130.031 29.9866 130.346 29.6748C130.662 29.3631 130.63 28.9487 130.24 28.5547L129.617 27.9244L128.609 28.921Z" fill="#172B4D"/>
<path d="M130.801 35.8575L135.071 32.326L135.757 33.1556L131.487 36.6871L130.801 35.8575Z" fill="#172B4D"/>
<path d="M134.39 40.364L138.183 37.735L137.231 36.3621L137.993 35.8345L140.509 39.4652L139.748 39.9928L138.796 38.6199L135.003 41.2489L134.39 40.364Z" fill="#172B4D"/>
<path d="M137.571 45.1398L142.378 42.3822L142.914 43.316L138.107 46.0737L137.571 45.1398Z" fill="#172B4D"/>
<path d="M139.803 49.0273L144.826 46.6867L146.411 50.0879L145.571 50.4791L144.441 48.0538L143.279 48.5954L144.191 50.5544L143.345 50.9489L142.432 48.99L140.258 50.0031L139.803 49.0273Z" fill="#172B4D"/>
<path d="M142.647 55.378L147.851 53.474L148.221 54.4851L143.017 56.3891L142.647 55.378Z" fill="#172B4D"/>
<path d="M144.192 59.5932L149.54 58.1434L150.509 61.7192L149.616 61.9615L148.928 59.4249L147.751 59.7438L148.302 61.7762L147.401 62.0206L146.85 59.9882L145.375 60.3879L146.085 63.0087L145.184 63.253L144.192 59.5932Z" fill="#172B4D"/>
<path d="M145.999 66.4421L151.476 65.6012L151.751 67.393C151.983 68.9032 151.283 70.3402 149.444 70.6225C147.605 70.9049 146.506 69.7441 146.274 68.234L145.999 66.4421ZM147.083 67.3489L147.183 67.9983C147.327 68.9373 147.94 69.7482 149.278 69.5427C150.616 69.3373 150.965 68.3786 150.821 67.4397L150.722 66.7902L147.083 67.3489Z" fill="#172B4D"/>
<path d="M146.89 78.5554L153.223 78.5814L153.219 79.658L146.886 79.632L146.89 78.5554Z" fill="#172B4D"/>
<path d="M146.473 89.9879C146.71 88.5428 147.865 87.4248 149.716 87.7291C151.568 88.0333 152.3 89.4854 152.066 90.9071C151.85 92.2195 150.979 93.0309 149.847 93.0374L149.801 91.9469C150.52 91.9205 151.037 91.46 151.152 90.7569C151.304 89.8351 150.766 89.0086 149.539 88.8071C148.313 88.6055 147.548 89.2098 147.395 90.1394C147.278 90.8503 147.588 91.4066 148.205 91.6525L147.795 92.6841C146.768 92.2427 146.266 91.2456 146.473 89.9879Z" fill="#172B4D"/>
<path d="M144.753 98.0821C145.214 96.5262 146.698 95.7276 148.269 96.1935C149.84 96.6594 150.648 98.1377 150.187 99.6936C149.728 101.242 148.244 102.04 146.673 101.575C145.102 101.109 144.294 99.6304 144.753 98.0821ZM147.961 97.2333C146.906 96.9204 145.934 97.3838 145.648 98.3476C145.363 99.3115 145.927 100.222 146.981 100.535C148.036 100.848 149.013 100.394 149.299 99.4302C149.585 98.4663 149.015 97.5461 147.961 97.2333Z" fill="#172B4D"/>
<path d="M142.959 103.98L148.034 106.205L147.306 107.866C146.692 109.265 145.331 110.103 143.627 109.355C141.923 108.608 141.618 107.039 142.231 105.64L142.959 103.98ZM143.389 105.326L143.125 105.928C142.743 106.798 142.826 107.811 144.066 108.355C145.306 108.899 146.114 108.277 146.496 107.407L146.76 106.805L143.389 105.326Z" fill="#172B4D"/>
<path d="M139.698 111.183L144.492 113.962L142.634 117.167L141.833 116.703L143.151 114.429L142.096 113.817L141.04 115.639L140.232 115.171L141.288 113.349L139.966 112.583L138.604 114.932L137.796 114.464L139.698 111.183Z" fill="#172B4D"/>
<path d="M134.967 118.706C135.612 117.824 136.744 117.524 137.635 118.009L137.306 118.955C136.717 118.632 136.049 118.781 135.685 119.28C135.344 119.746 135.343 120.216 135.682 120.464C136.646 121.17 137.837 118.402 139.46 119.589C140.176 120.113 140.196 121.157 139.551 122.039C138.93 122.889 137.985 123.228 137.205 122.873L137.456 121.86C137.956 122.088 138.469 121.964 138.81 121.497C139.123 121.069 139.13 120.671 138.829 120.452C138.018 119.858 136.87 122.687 135.056 121.36C134.264 120.78 134.229 119.715 134.967 118.706Z" fill="#172B4D"/>
<path d="M130.061 124.855C131.054 123.778 132.633 123.479 134.012 124.751C135.39 126.024 135.203 127.639 134.226 128.698C133.325 129.675 132.151 129.874 131.201 129.257L131.763 128.321C132.378 128.694 133.063 128.594 133.546 128.07C134.179 127.383 134.184 126.397 133.271 125.554C132.357 124.712 131.386 124.796 130.747 125.488C130.259 126.017 130.211 126.652 130.592 127.197L129.682 127.833C129.067 126.9 129.196 125.791 130.061 124.855Z" fill="#172B4D"/>
<path d="M126.219 128.962L129.845 133.153L127.043 135.577L126.437 134.876L128.425 133.157L127.627 132.235L126.035 133.612L125.423 132.906L127.016 131.528L126.016 130.373L123.963 132.149L123.352 131.443L126.219 128.962Z" fill="#172B4D"/>
<path d="M120.837 133.559L123.974 138.128L123.073 138.746L118.938 136.919L121.115 140.09L120.286 140.659L117.15 136.091L118.05 135.473L122.175 137.298L120.002 134.133L120.837 133.559Z" fill="#172B4D"/>
<path d="M114.162 138.024L116.769 142.914L113.5 144.657L113.064 143.839L115.383 142.603L114.81 141.527L112.952 142.518L112.512 141.693L114.37 140.703L113.652 139.355L111.255 140.632L110.816 139.808L114.162 138.024Z" fill="#172B4D"/>
<path d="M103.11 147.578L103.19 145.453L101.791 145.911L103.11 147.578ZM104.333 142.832L104.03 148.76L103.074 149.073L99.3285 144.467L100.382 144.123L101.192 145.149L103.231 144.482L103.279 143.176L104.333 142.832Z" fill="#172B4D"/>
<path d="M94.1678 145.715C95.6036 145.427 97.0574 146.112 97.4269 147.951C97.7964 149.791 96.6967 150.989 95.2841 151.273C93.9802 151.534 92.9132 151.006 92.5071 149.949L93.5112 149.521C93.7897 150.184 94.4032 150.505 95.1017 150.364C96.0176 150.18 96.6006 149.385 96.3558 148.167C96.1111 146.948 95.2754 146.446 94.3518 146.631C93.6455 146.773 93.2345 147.259 93.2226 147.924L92.1126 147.905C92.1629 146.788 92.9182 145.966 94.1678 145.715Z" fill="#172B4D"/>
<path d="M86.7905 151.094L87.3673 149.047L85.8995 149.163L86.7905 151.094ZM89.0931 146.767L87.4065 152.458L86.4042 152.538L83.8451 147.181L84.9499 147.094L85.4963 148.281L87.635 148.113L87.9882 146.854L89.0931 146.767Z" fill="#172B4D"/>
<path d="M80.8626 147.346L80.6546 152.883L78.843 152.815C77.3163 152.758 76.0373 151.799 76.1071 149.94C76.1769 148.081 77.5243 147.22 79.0511 147.278L80.8626 147.346ZM79.7675 148.239L79.1109 148.215C78.1616 148.179 77.2496 148.628 77.1988 149.981C77.148 151.333 78.0235 151.858 78.9727 151.893L79.6293 151.918L79.7675 148.239Z" fill="#172B4D"/>
<path d="M72.8372 146.944L72.0149 152.424L68.3511 151.874L68.4885 150.958L71.0876 151.348L71.2685 150.142L69.1861 149.83L69.3247 148.906L71.4071 149.219L71.6338 147.708L68.9486 147.305L69.0872 146.381L72.8372 146.944Z" fill="#172B4D"/>
<path d="M65.8304 145.883L64.3511 151.223L63.1838 150.9L62.6226 146.58L59.9186 149.995L58.7513 149.672L60.2306 144.332L61.2072 144.602L60.2625 148.012L62.6414 145L63.4196 145.215L63.9092 149.023L64.8539 145.612L65.8304 145.883Z" fill="#172B4D"/>
<path d="M55.5952 142.72L54.7113 144.839L55.2151 148.566L54.1484 148.121L53.8244 145.567L51.7739 147.13L50.7073 146.685L53.7177 144.424L54.6016 142.305L55.5952 142.72Z" fill="#172B4D"/>
<path d="M44.2279 136.912C45.4564 137.71 46.0174 139.216 44.9961 140.789C43.9747 142.363 42.3509 142.451 41.1423 141.667C40.0267 140.943 39.633 139.819 40.0812 138.78L41.0984 139.175C40.8344 139.844 41.0489 140.502 41.6465 140.89C42.4301 141.399 43.4031 141.237 44.0796 140.195C44.7562 139.152 44.5096 138.209 43.7194 137.696C43.1151 137.304 42.4813 137.364 42.0084 137.831L41.2279 137.042C42.0441 136.279 43.1588 136.219 44.2279 136.912Z" fill="#172B4D"/>
<path d="M39.5424 133.827L36.0213 138.106L33.1605 135.752L33.7491 135.036L35.7785 136.706L36.5532 135.765L34.9271 134.427L35.5207 133.706L37.1467 135.044L38.1175 133.864L36.0208 132.139L36.6144 131.417L39.5424 133.827Z" fill="#172B4D"/>
<path d="M34.1021 129.277L30.1429 133.155L28.6496 131.625C27.8919 130.849 27.8584 129.897 28.5721 129.2C29.0195 128.763 29.6258 128.625 30.1999 128.828L30.944 126.043L31.8234 126.944L31.1105 129.466L31.7244 130.094L33.3499 128.507L34.1021 129.277ZM31.0617 130.742L30.4422 130.107C30.0551 129.711 29.647 129.667 29.3298 129.976C29.0126 130.286 29.0413 130.701 29.4284 131.097L30.0479 131.732L31.0617 130.742Z" fill="#172B4D"/>
<path d="M28.9159 123.791L24.6226 127.295L23.9419 126.46L28.2352 122.957L28.9159 123.791Z" fill="#172B4D"/>
<path d="M25.3565 119.261L21.5461 121.865L22.4886 123.244L21.7239 123.767L19.2314 120.12L19.9961 119.597L20.9386 120.976L24.749 118.372L25.3565 119.261Z" fill="#172B4D"/>
<path d="M22.2055 114.464L17.3809 117.19L16.8513 116.252L21.6759 113.526L22.2055 114.464Z" fill="#172B4D"/>
<path d="M20.0001 110.563L14.962 112.871L13.3994 109.459L14.2415 109.073L15.3557 111.506L16.5217 110.972L15.6218 109.007L16.4711 108.618L17.371 110.583L19.5518 109.584L20.0001 110.563Z" fill="#172B4D"/>
<path d="M17.197 104.191L11.9804 106.061L11.6172 105.047L16.8338 103.178L17.197 104.191Z" fill="#172B4D"/>
<path d="M15.6816 99.9702L10.3237 101.385L9.37799 97.8026L10.2735 97.5662L10.9444 100.107L12.1231 99.7962L11.5856 97.7602L12.4888 97.5217L13.0263 99.5577L14.5036 99.1677L13.8105 96.5424L14.7136 96.3039L15.6816 99.9702Z" fill="#172B4D"/>
<path d="M13.9186 93.1037L8.43589 93.9082L8.17272 92.1145C7.95092 90.6029 8.66089 89.1705 10.5015 88.9005C12.3422 88.6304 13.4337 89.7984 13.6555 91.3101L13.9186 93.1037ZM12.8404 92.1898L12.745 91.5397C12.6071 90.5998 11.9995 89.7848 10.6601 89.9813C9.32076 90.1779 8.96501 91.1342 9.10291 92.0741L9.1983 92.7242L12.8404 92.1898Z" fill="#172B4D"/>
<path d="M13.108 80.987L6.77529 80.9195L6.78677 79.843L13.1195 79.9105L13.108 80.987Z" fill="#172B4D"/>
</svg>
