<svg width="160" height="160" viewBox="0 0 160 160" fill="none" xmlns="http://www.w3.org/2000/svg">
<g clip-path="url(#clip0_144_1408)">
<path d="M77.6 117.6L77.1 120.2C77.1 120.2 77.1 120.4 77.1 120.5C77.1 120.6 77.1 120.7 77.3 120.7H77.5C77.5 120.7 77.7 120.7 77.8 120.7L80.2 119.5L82.6 120.7C82.6 120.7 82.8 120.7 82.9 120.7H83.1C83.1 120.7 83.2 120.6 83.3 120.5C83.3 120.5 83.3 120.3 83.3 120.2L82.9 117.6L84.8 115.7C84.8 115.7 84.9 115.6 84.9 115.5C84.9 115.5 84.9 115.3 84.9 115.2C84.9 115.2 84.9 115 84.8 115C84.8 115 84.7 115 84.6 114.9L82 114.5L80.8 112.1C80.8 112.1 80.8 112 80.6 111.9H80.4H80.2C80.2 111.9 80.1 112 80 112.1L78.8 114.5L76.2 114.9C76.2 114.9 76 114.9 76 115C76 115 75.9 115.1 75.9 115.2C75.9 115.2 75.9 115.4 75.9 115.5C75.9 115.5 75.9 115.7 76 115.7L77.9 117.6H77.6Z" fill="#172B4D"/>
<path d="M89 107.9L88.5 110.5C88.5 110.5 88.5 110.7 88.5 110.8C88.5 110.8 88.5 111 88.7 111H88.9C88.9 111 89.1 111 89.2 111L91.6 109.8L94 111C94 111 94.2 111 94.3 111H94.5C94.5 111 94.6 110.9 94.7 110.8C94.7 110.8 94.7 110.6 94.7 110.5L94.3 107.9L96.2 106C96.2 106 96.3 105.9 96.3 105.8C96.3 105.8 96.3 105.6 96.3 105.5C96.3 105.5 96.3 105.3 96.2 105.3C96.2 105.3 96.1 105.3 96 105.2L93.4 104.8L92.2 102.4C92.2 102.4 92.2 102.3 92 102.2H91.8H91.6C91.6 102.2 91.5 102.3 91.4 102.4L90.2 104.8L87.6 105.2C87.6 105.2 87.4 105.2 87.4 105.3C87.4 105.3 87.3 105.4 87.3 105.5C87.3 105.5 87.3 105.7 87.3 105.8C87.3 105.8 87.3 106 87.4 106L89.3 107.9H89Z" fill="#172B4D"/>
<path d="M66.4 107.9L65.9 110.5C65.9 110.5 65.9 110.7 65.9 110.8C65.9 110.8 65.9 111 66.1 111H66.3C66.3 111 66.5 111 66.6 111L69 109.8L71.4 111C71.4 111 71.6 111 71.7 111H71.9C71.9 111 72 110.9 72.1 110.8C72.1 110.8 72.1 110.6 72.1 110.5L71.7 107.9L73.6 106C73.6 106 73.7 105.9 73.7 105.8C73.7 105.8 73.7 105.6 73.7 105.5C73.7 105.5 73.7 105.3 73.6 105.3C73.6 105.3 73.5 105.3 73.4 105.2L70.8 104.8L69.6 102.4C69.6 102.4 69.6 102.3 69.4 102.2H69.2H69C69 102.2 68.9 102.3 68.8 102.4L67.6 104.8L65 105.2C65 105.2 64.8 105.2 64.8 105.3C64.8 105.3 64.7 105.4 64.7 105.5C64.7 105.5 64.7 105.7 64.7 105.8C64.7 105.8 64.7 106 64.8 106L66.7 107.9H66.4Z" fill="#172B4D"/>
<path d="M121.7 48.3C121.7 46.8 121.2 45.3 120.3 44C119.4 42.8 118.1 41.8001 116.7 41.4001L82.4 30.3C80.9 29.8 79.4 29.8 77.9 30.3L43.6 41.4001C40.6 42.4001 38.6 45.2 38.6 48.3V67.8001H36.7C34.4 67.8001 32.5 69.7 32.5 72V90.4001C32.5 92.7001 34.4 94.6001 36.7 94.6001H40.7C45.5 111.7 58.4 125.1 77.7 132.4C78.5 132.7 79.3 132.9 80.2 132.9C81.1 132.9 81.9 132.8 82.7 132.5C101.1 125.6 114.7 112.5 119.7 94.7H123.8C126.1 94.7 128 92.8 128 90.5V72.1C128 69.8 126.1 67.9001 123.8 67.9001H121.8V48.4001L121.7 48.3ZM81.9 130.6C80.7 131 79.4 131 78.2 130.6C59.7 123.6 47.2 110.8 42.5 94.5H117.6C112.8 110.8 100.4 123.6 81.9 130.6ZM123.7 69.6C125 69.6 126.1 70.7 126.1 72V90.4001C126.1 91.7001 125 92.8001 123.7 92.8001H36.6C35.3 92.8001 34.2 91.7001 34.2 90.4001V72C34.2 70.7 35.3 69.6 36.6 69.6H123.7Z" fill="#172B4D"/>
<path d="M55.5 85.6001C57 85.6001 58 84.9001 58.4 83.8001L56.9 83.4001C56.7 84.0001 56.2 84.3001 55.5 84.3001C54.8 84.3001 54 83.7001 53.9 82.8001H58.5C58.5 82.7001 58.5 82.4001 58.5 82.2001C58.5 80.8001 57.5 79.2001 55.4 79.2001C53.3 79.2001 52.4 80.8001 52.4 82.4001C52.4 84.0001 53.5 85.6001 55.5 85.6001ZM55.4 80.4001C56.3 80.4001 56.8 81.0001 56.8 81.7001H53.9C54.1 80.9001 54.6 80.4001 55.4 80.4001Z" fill="#172B4D"/>
<path d="M100.6 78.4C101.2 78.4 101.6 78 101.6 77.4C101.6 76.8 101.2 76.5 100.6 76.5C100 76.5 99.6 76.9 99.6 77.4C99.6 77.9 100 78.4 100.6 78.4Z" fill="#172B4D"/>
<path d="M47.5 85.6C49.5 85.6 50.9 84.6 51.3 82.9L49.6 82.5C49.4 83.5 48.6 84.1 47.5 84.1C46.4 84.1 44.9001 83.1 44.9001 81.2C44.9001 79.3 46 78.2 47.5 78.2C49 78.2 49.4001 78.9 49.7001 80L51.4001 79.7C51.1001 78 49.6 76.8 47.6 76.8C45.6 76.8 43.3 78.3 43.3 81.2C43.3 84.1 45.3 85.6 47.6 85.6H47.5Z" fill="#172B4D"/>
<path d="M90.6 81.7001C88.8 81.9001 87.8 82.5001 87.8 83.8001C87.8 85.1001 88.6 85.6001 89.9 85.6001C91.2 85.6001 91.4 85.2001 91.7 84.6001V85.5001H93.2V81.7001C93.2 80.1001 92.1 79.2001 90.5 79.2001C88.9 79.2001 88.1 80.0001 87.9 81.2001L89.3 81.4001C89.3 80.7001 89.9 80.3001 90.5 80.3001C91.1 80.3001 91.7 80.7001 91.7 81.4001L90.5 81.6001L90.6 81.7001ZM91.8 82.8001C91.8 83.7001 91.2 84.4001 90.3 84.4001C89.4 84.4001 89.4 84.1001 89.4 83.7001C89.4 83.3001 89.8 82.9001 90.6 82.8001H91.8Z" fill="#172B4D"/>
<path d="M112.2 82.8C112.2 81.4 112.8 80.6 113.7 80.6C114.6 80.6 114.9 81.1 114.9 81.8V85.5H116.4V81.5C116.4 80.2 115.5 79.3 114.1 79.3C112.7 79.3 112.5 79.7 112.1 80.3V79.4H110.6V85.6H112.1V82.9L112.2 82.8Z" fill="#172B4D"/>
<path d="M101.4 79.3H99.9V85.5H101.4V79.3Z" fill="#172B4D"/>
<path d="M106 85.6001C107.9 85.6001 109.2 84.3001 109.2 82.4001C109.2 80.5001 107.9 79.2001 106 79.2001C104.1 79.2001 102.8 80.5001 102.8 82.4001C102.8 84.3001 104.1 85.6001 106 85.6001ZM106 80.6001C107 80.6001 107.7 81.3001 107.7 82.4001C107.7 83.5001 107 84.2001 106 84.2001C105 84.2001 104.3 83.5001 104.3 82.4001C104.3 81.3001 105 80.6001 106 80.6001Z" fill="#172B4D"/>
<path d="M83.8 85.6C85.4 85.6 86.5 84.8 86.7 83.5L85.2 83.2C85.1 83.9 84.6 84.3 83.9 84.3C83.2 84.3 82.3 83.6 82.3 82.5C82.3 81.4 82.9 80.7 83.9 80.7C84.9 80.7 85.1 81.1 85.2 81.8L86.7 81.5C86.5 80.2 85.4 79.4 83.8 79.4C82.2 79.4 80.7 80.7 80.7 82.6C80.7 84.5 82 85.8 83.8 85.8V85.6Z" fill="#172B4D"/>
<path d="M95.4 83.5C95.4 84.9 96.3 85.6 97.6 85.6C98.9 85.6 98.3 85.6 98.6 85.4V84.1C98.3 84.2 98 84.2 97.8 84.2C97.3 84.2 97 83.9 97 83.3V80.6H98.6V79.3H97V77.5H95.5V79.3H94.5V80.6H95.5V83.5H95.4Z" fill="#172B4D"/>
<path d="M70.9 78.4C71.5 78.4 71.9 78 71.9 77.4C71.9 76.8 71.5 76.5 70.9 76.5C70.3 76.5 69.9 76.9 69.9 77.4C69.9 77.9 70.3 78.4 70.9 78.4Z" fill="#172B4D"/>
<path d="M78.5 78.4C79.1 78.4 79.5 78 79.5 77.4C79.5 76.8 79.1 76.5 78.5 76.5C77.9 76.5 77.5 76.9 77.5 77.4C77.5 77.9 77.9 78.4 78.5 78.4Z" fill="#172B4D"/>
<path d="M61.5 83.2001C61.5 81.4001 62.2 80.7001 63.1 80.7001C64 80.7001 63.5 80.7001 63.5 80.7001V79.2001C63.6 79.2001 63.5 79.2001 63.2 79.2001C62.5 79.2001 61.7 79.7001 61.5 80.4001V79.3001H60V85.5001H61.5V83.2001Z" fill="#172B4D"/>
<path d="M65.7 83.5C65.7 84.9 66.6 85.6 67.9 85.6C69.2 85.6 68.6 85.6 68.9 85.4V84.1C68.6 84.2 68.3 84.2 68.1 84.2C67.6 84.2 67.3 83.9 67.3 83.3V80.6H68.9V79.3H67.3V77.5H65.8V79.3H64.8V80.6H65.8V83.5H65.7Z" fill="#172B4D"/>
<path d="M73.9 85.5H75.4V80.6H77.7V85.5H79.2V79.3H75.3V78.8C75.3 78.2 75.7 77.8 76.2 77.8C76.7 77.8 76.6 77.8 76.8 77.9V76.6C76.6 76.6 76.3 76.5 76 76.5C74.8 76.5 73.8 77.3 73.8 78.7V79.2H72.8V80.5H73.8V85.4L73.9 85.5Z" fill="#172B4D"/>
<path d="M71.6 79.3H70.1V85.5H71.6V79.3Z" fill="#172B4D"/>
<path d="M80.1 0.900024C36.4 0.900024 0.900024 36.4 0.900024 80.1C0.900024 123.8 36.4 159.2 80 159.2C123.6 159.2 159.1 123.7 159.1 80.1C159.1 36.5 123.7 0.900024 80.1 0.900024ZM80.1 157.7C37.3 157.7 2.40002 122.9 2.40002 80.1C2.40002 37.3 37.3 2.40002 80.1 2.40002C122.9 2.40002 157.7 37.2 157.7 80C157.7 122.8 122.9 157.6 80.1 157.6V157.7Z" fill="#172B4D"/>
<path d="M80.1 17.3C45.5 17.3 17.4 45.4001 17.4 80C17.4 114.6 45.5 142.7 80.1 142.7C114.7 142.7 142.8 114.6 142.8 80C142.8 45.4001 114.7 17.3 80.1 17.3ZM80.1 141.3C46.4 141.3 18.9 113.8 18.9 80.1C18.9 46.4 46.4 18.9 80.1 18.9C113.8 18.9 141.3 46.4 141.3 80.1C141.3 113.8 113.8 141.3 80.1 141.3Z" fill="#172B4D"/>
<path d="M10.2 72.7C12.1 73 13.2 71.9 13.4 70.4C13.6 69.1 13.1 68.1 12.1 67.7L11.7 68.7C12.3 68.9 12.6 69.5 12.5 70.2C12.4 71.1 11.6 71.7 10.4 71.5C9.20002 71.3 8.60002 70.5 8.80002 69.6C8.90002 68.9 9.40002 68.4 10.1 68.4V67.3C8.90002 67.3 8.00002 68.1 7.80002 69.4C7.60002 70.8 8.30002 72.3 10.2 72.6V72.7Z" fill="#172B4D"/>
<path d="M11.6 64.2C13.2 64.7 14.7 63.8 15.1 62.3C15.5 60.7 14.7 59.3 13.2 58.8C11.6 58.3 10.1 59.2 9.70003 60.7C9.20003 62.3 10.1 63.7 11.6 64.2ZM10.6 61C10.9 60 11.9 59.6 12.9 59.9C14 60.2 14.5 61.1 14.2 62.1C13.9 63.1 13 63.5 11.9 63.2C10.8 62.9 10.3 62 10.5 61H10.6Z" fill="#172B4D"/>
<path d="M17.6 54.8C18.2 53.4 17.9 51.8 16.2 51.1C14.5 50.4 13.1 51.2 12.5 52.6L11.8 54.3L16.9 56.5L17.6 54.8ZM16.5 55.1L13.1 53.6L13.4 53C13.8 52.1 14.6 51.5 15.8 52C17 52.5 17.1 53.5 16.8 54.4L16.5 55V55.1Z" fill="#172B4D"/>
<path d="M22 45.9001L21.2 45.4001L19.8 47.8001L18.5 47.0001L19.5 45.2001L18.7 44.7001L17.7 46.6001L16.6 46.0001L17.9 43.7001L17.1 43.2001L15.3 46.4001L20.1 49.2001L22 45.9001Z" fill="#172B4D"/>
<path d="M20.3 40.8C21.9 42 23.1 39.2 24.1 39.9C24.4 40.1 24.4 40.6 24.1 41.1C23.7 41.6 23.1 41.8 22.5 41.4L22.2 42.3C23.1 42.8 24.2 42.5 24.9 41.6C25.6 40.6 25.6 39.5 24.8 38.9C23 37.6 21.8 40.4 21 39.8C20.7 39.6 20.7 39.2 21 38.8C21.3 38.3 21.9 38.2 22.4 38.4L22.6 37.4C21.8 37.1 20.9 37.4 20.3 38.2C19.7 39.1 19.7 40.1 20.4 40.6L20.3 40.8Z" fill="#172B4D"/>
<path d="M29.7 35.5001C30.6 34.6001 30.7 33.4001 30.1 32.5001L29.2 33.1001C29.6 33.6001 29.5 34.3001 29.1 34.8001C28.5 35.5001 27.5 35.6001 26.6 34.8001C25.7 34.0001 25.7 33.0001 26.3 32.3001C26.8 31.8001 27.5 31.7001 28.1 32.0001L28.7 31.1001C27.7 30.5001 26.6 30.7001 25.7 31.7001C24.7 32.8001 24.6 34.4001 25.9 35.6001C27.3 36.9001 28.9 36.6001 29.9 35.5001H29.7Z" fill="#172B4D"/>
<path d="M36.3 28.8001L35.7001 28.1001L33.7001 29.9001L32.7001 28.8001L34.2001 27.4001L33.6 26.7001L32 28.1001L31.2001 27.1001L33.2001 25.4001L32.6 24.7001L29.8 27.2001L33.5 31.3001L36.3 28.8001Z" fill="#172B4D"/>
<path d="M39.6 26.1L37.5 23L41.6 24.8L42.5 24.1L39.3 19.6L38.5 20.2L40.7 23.3L36.5 21.5L35.7 22.1L38.8 26.7L39.6 26.1Z" fill="#172B4D"/>
<path d="M48.8 20.4L48.4001 19.6L46 20.9L45.2001 19.5L47.1 18.5L46.6 17.7L44.8 18.7L44.2001 17.6L46.5 16.4L46.1 15.5L42.8 17.3L45.5 22.2L48.8 20.4Z" fill="#172B4D"/>
<path d="M56.3 15.7L58.3 15L59.1 16L60.2 15.6L56.4 11L55.4 11.3L55.1 17.2L56.2 16.8V15.5L56.3 15.7ZM56.4 12.6L57.7 14.3L56.3 14.8V12.7L56.4 12.6Z" fill="#172B4D"/>
<path d="M65.4 14.4001C66.6 14.1001 67.4 13.3001 67.4 12.2001H66.3C66.3 12.9001 65.9 13.3001 65.2 13.5001C64.3 13.7001 63.4 13.2001 63.2 12.0001C62.9 10.8001 63.5 10.0001 64.4 9.80007C65.1 9.70007 65.7 10.0001 66 10.6001L67 10.2001C66.6 9.10007 65.5 8.60007 64.2 8.90007C62.8 9.20007 61.7 10.4001 62.1 12.2001C62.5 14.0001 63.9 14.7001 65.4 14.4001Z" fill="#172B4D"/>
<path d="M71.9 11.9L74 11.7L74.6 12.9H75.7L73.1 7.5H72.1L70.5 13.3H71.6L71.9 11.9ZM72.8 8.9L73.7 10.8H72.2C72.2 10.9 72.8 8.9 72.8 8.9Z" fill="#172B4D"/>
<path d="M83.4 9.99998C83.4 8.09998 82.2 7.19998 80.6 7.09998H78.8L78.6 12.6H80.4C81.9 12.7 83.3 11.8 83.3 9.99998H83.4ZM79.8 11.7V7.99998C79.9 7.99998 80.6 7.99998 80.6 7.99998C81.5 7.99998 82.4 8.49998 82.4 9.89998C82.4 11.3 81.4 11.7 80.5 11.7H79.8Z" fill="#172B4D"/>
<path d="M90.6 12.6L87.9 12.2L88.1 10.7L90.2 11L90.4 10.1L88.3 9.8L88.4 8.6L91 9L91.2 8L87.5 7.5L86.7 13L90.5 13.5L90.6 12.6Z" fill="#172B4D"/>
<path d="M95.6 10.9001L96.2 14.7001L96.9 14.9001L99.3 11.8001L98.4 15.3001L99.4 15.5001L100.8 10.2001L99.6 9.90007L97 13.3001L96.4 9.00007L95.2 8.70007L93.7 14.0001L94.7 14.3001L95.6 10.9001Z" fill="#172B4D"/>
<path d="M105 17.5L105.9 15.4L108.9 13.1L107.8 12.7L105.7 14.2L105.4 11.7L104.3 11.3L104.9 15L104 17.1L105 17.5Z" fill="#172B4D"/>
<path d="M115.4 22.8C116.5 23.5 117.6 23.4 118.4 22.7L117.6 21.9C117.1 22.4 116.5 22.4 115.9 22C115.1 21.5 114.9 20.6 115.5 19.5C116.1 18.4 117.1 18.3 117.9 18.8C118.5 19.2 118.7 19.8 118.5 20.5L119.5 20.9C119.9 19.9 119.5 18.7 118.4 18C117.2 17.2 115.6 17.3 114.6 18.9C113.6 20.5 114.2 22 115.4 22.8Z" fill="#172B4D"/>
<path d="M123.6 27.6L121.5 25.8L122.5 24.7L124.1 26L124.7 25.3L123.1 23.9L123.9 23L125.9 24.6L126.5 23.9L123.6 21.6L120.1 25.9L123.1 28.3L123.6 27.6Z" fill="#172B4D"/>
<path d="M126.3 31.2L127.9 29.6L128.5 30.2L127.8 32.7L128.7 33.6L129.4 30.8C130 31 130.6 30.8 131 30.4C131.7 29.7 131.7 28.7 131 28L129.5 26.5L125.6 30.4L126.4 31.2H126.3ZM129.6 27.9L130.2 28.5C130.6 28.9 130.6 29.3 130.3 29.6C130 29.9 129.6 29.9 129.2 29.5L128.6 28.9L129.6 27.9Z" fill="#172B4D"/>
<path d="M135.062 32.4079L130.824 35.9137L131.526 36.7613L135.763 33.2554L135.062 32.4079Z" fill="#172B4D"/>
<path d="M134.4 40.4001L135 41.2001L138.8 38.6L139.7 40L140.5 39.5L138 35.8L137.2 36.4001L138.2 37.7001L134.4 40.4001Z" fill="#172B4D"/>
<path d="M142.408 42.5541L137.636 45.2875L138.182 46.242L142.955 43.5087L142.408 42.5541Z" fill="#172B4D"/>
<path d="M140.3 50.0001L142.4 49.0001L143.3 50.9001L144.2 50.6001L143.3 48.6001L144.4 48.1001L145.6 50.5001L146.4 50.1001L144.8 46.7001L139.8 49.0001L140.3 50.0001Z" fill="#172B4D"/>
<path d="M147.869 53.4564L142.704 55.3466L143.082 56.3796L148.247 54.4894L147.869 53.4564Z" fill="#172B4D"/>
<path d="M145.2 63.3L146.1 63L145.4 60.4L146.9 60L147.4 62L148.3 61.8L147.8 59.7L148.9 59.4L149.6 62L150.5 61.7L149.5 58.1L144.2 59.6L145.2 63.3Z" fill="#172B4D"/>
<path d="M146.3 68.2C146.5 69.7 147.6 70.9 149.5 70.6C151.3 70.3 152 68.9 151.8 67.4L151.5 65.6L146 66.4L146.3 68.2ZM150.7 66.8V67.4C150.9 68.3 150.6 69.3 149.3 69.5C148 69.7 147.3 68.9 147.2 68V67.4L150.7 66.8Z" fill="#172B4D"/>
<path d="M146.825 78.5659L146.821 79.6659L153.121 79.6879L153.125 78.5879L146.825 78.5659Z" fill="#172B4D"/>
<path d="M149.7 87.7C147.8 87.4 146.7 88.5 146.5 90C146.3 91.3 146.8 92.3 147.8 92.7L148.2 91.7C147.6 91.5 147.3 90.9 147.4 90.2C147.6 89.3 148.3 88.7 149.5 88.9C150.7 89.1 151.3 89.9 151.1 90.8C151 91.5 150.5 92 149.7 92V93.1C150.9 93.1 151.7 92.3 152 91C152.2 89.6 151.5 88.1 149.7 87.8V87.7Z" fill="#172B4D"/>
<path d="M148.3 96.2C146.7 95.7 145.2 96.5 144.8 98.1C144.3 99.6 145.1 101.1 146.7 101.6C148.3 102.1 149.8 101.3 150.2 99.7C150.7 98.1 149.9 96.7 148.3 96.2ZM149.3 99.4C149 100.4 148 100.8 147 100.5C145.9 100.2 145.4 99.3 145.7 98.3C146 97.3 147 96.9 148 97.2C149.1 97.5 149.6 98.4 149.3 99.4Z" fill="#172B4D"/>
<path d="M142.2 105.6C141.6 107 141.9 108.6 143.6 109.3C145.3 110 146.7 109.3 147.3 107.8L148 106.1L142.9 103.9L142.2 105.6ZM143.4 105.3L146.8 106.8L146.5 107.4C146.1 108.3 145.3 108.9 144.1 108.3C142.9 107.8 142.8 106.7 143.2 105.9L143.5 105.3H143.4Z" fill="#172B4D"/>
<path d="M137.8 114.5L138.6 114.9L140 112.6L141.3 113.3L140.2 115.2L141 115.6L142.1 113.8L143.2 114.4L141.8 116.7L142.6 117.2L144.5 114L139.7 111.2L137.8 114.5Z" fill="#172B4D"/>
<path d="M139.5 119.6C137.9 118.4 136.7 121.2 135.7 120.5C135.4 120.3 135.4 119.8 135.7 119.3C136.1 118.8 136.7 118.7 137.3 119L137.6 118.1C136.7 117.6 135.6 117.9 134.9 118.8C134.2 119.8 134.2 120.9 134.9 121.5C136.7 122.8 137.9 120 138.7 120.6C139 120.8 139 121.2 138.7 121.6C138.4 122.1 137.8 122.2 137.3 122L137 123C137.8 123.4 138.7 123 139.3 122.2C139.9 121.3 139.9 120.3 139.3 119.8L139.5 119.6Z" fill="#172B4D"/>
<path d="M130.1 124.9C129.2 125.8 129.1 126.9 129.7 127.9L130.6 127.3C130.2 126.8 130.3 126.1 130.8 125.6C131.4 124.9 132.4 124.8 133.3 125.6C134.2 126.4 134.2 127.4 133.6 128.1C133.1 128.6 132.4 128.7 131.8 128.4L131.2 129.3C132.2 129.9 133.3 129.7 134.2 128.7C135.2 127.6 135.4 126 134 124.8C132.6 123.5 131 123.8 130 124.9H130.1Z" fill="#172B4D"/>
<path d="M123.4 131.4L124 132.1L126 130.4L127 131.5L125.4 132.9L126 133.6L127.6 132.2L128.4 133.2L126.4 134.9L127 135.6L129.8 133.2L126.2 129L123.4 131.4Z" fill="#172B4D"/>
<path d="M120 134.1L122.2 137.3L118 135.5L117.2 136.1L120.3 140.7L121.1 140.1L118.9 136.9L123.1 138.7L124 138.1L120.8 133.6L120 134.1Z" fill="#172B4D"/>
<path d="M110.8 139.8L111.3 140.6L113.7 139.4L114.4 140.7L112.5 141.7L113 142.5L114.8 141.5L115.4 142.6L113.1 143.8L113.5 144.7L116.8 142.9L114.2 138L110.8 139.8Z" fill="#172B4D"/>
<path d="M103.2 144.5L101.2 145.2L100.4 144.2L99.3 144.5L103 149.1L104 148.8L104.3 142.9L103.2 143.2V144.5ZM103.1 147.6L101.8 145.9L103.2 145.4V147.5L103.1 147.6Z" fill="#172B4D"/>
<path d="M94.2 145.7C93 146 92.2 146.8 92.1 147.9H93.2C93.2 147.3 93.6 146.8 94.3 146.6C95.2 146.4 96.1 146.9 96.3 148.1C96.5 149.3 96 150.1 95 150.3C94.3 150.4 93.7 150.1 93.4 149.5L92.4 149.9C92.8 151 93.9 151.5 95.2 151.2C96.6 150.9 97.7 149.7 97.3 147.9C96.9 146.1 95.5 145.4 94 145.7H94.2Z" fill="#172B4D"/>
<path d="M87.6 148.1L85.5 148.3L85 147.1H83.9L86.5 152.5H87.5L89.2 146.7H88.1L87.7 148L87.6 148.1ZM86.8 151.1L85.9 149.2H87.4C87.4 149.1 86.8 151.1 86.8 151.1Z" fill="#172B4D"/>
<path d="M76.1 149.9C76.1 151.8 77.3 152.7 78.8 152.8H80.6L80.8 147.3H79C77.5 147.2 76.1 148 76.1 149.9ZM79.8 148.2V151.9C79.7 151.9 79 151.9 79 151.9C78.1 151.9 77.2 151.3 77.2 150C77.2 148.6 78.2 148.2 79.1 148.2H79.8Z" fill="#172B4D"/>
<path d="M68.9 147.3L71.6 147.7L71.4 149.2L69.3 148.9L69.2 149.8L71.3 150.1L71.1 151.3L68.5 151L68.4 151.9L72 152.4L72.8 146.9L69.1 146.4L68.9 147.3Z" fill="#172B4D"/>
<path d="M63.9001 149L63.4001 145.2L62.6 145L60.3 148L61.2001 144.6L60.2001 144.3L58.8 149.7L59.9001 150L62.6 146.6L63.2001 150.9L64.4001 151.2L65.8001 145.9L64.9001 145.6L63.9001 149Z" fill="#172B4D"/>
<path d="M54.6 142.3L53.7 144.4L50.7 146.7L51.8 147.1L53.8 145.6L54.1 148.1L55.2 148.6L54.7 144.8L55.6 142.7L54.6 142.3Z" fill="#172B4D"/>
<path d="M44.2 136.9C43.1 136.2 42 136.3 41.2 137L42 137.8C42.5 137.3 43.1 137.3 43.7 137.7C44.5 138.2 44.7 139.2 44.1 140.2C43.4 141.2 42.5 141.4 41.7 140.9C41.1 140.5 40.9 139.9 41.2 139.2L40.2 138.8C39.8 139.8 40.2 141 41.3 141.7C42.5 142.5 44.1 142.4 45.2 140.8C46.2 139.2 45.7 137.7 44.4 136.9H44.2Z" fill="#172B4D"/>
<path d="M36 132.1L38.1 133.9L37.1 135L35.5 133.7L34.9 134.4L36.6 135.8L35.8 136.7L33.7 135L33.2 135.8L36 138.1L39.5 133.8L36.6 131.4L36 132.1Z" fill="#172B4D"/>
<path d="M33.3 128.5L31.7 130.1L31.1 129.5L31.8 127L30.9 126.1L30.2 128.9C29.6 128.7 29 128.9 28.6 129.3C27.9 130 27.9 130.9 28.6 131.7L30.1 133.2L34.1 129.3L33.3 128.5ZM30 131.7L29.4 131.1C29 130.7 29 130.3 29.4 130C29.7 129.7 30.1 129.7 30.5 130.1L31.1 130.7L30.1 131.7H30Z" fill="#172B4D"/>
<path d="M28.1792 123.003L23.9171 126.479L24.6123 127.331L28.8745 123.855L28.1792 123.003Z" fill="#172B4D"/>
<path d="M25.4 119.3L24.7 118.4L20.9 121L20 119.6L19.2 120.1L21.7 123.8L22.5 123.2L21.5 121.9L25.4 119.3Z" fill="#172B4D"/>
<path d="M21.7392 113.436L16.9522 116.144L17.4939 117.102L22.2808 114.393L21.7392 113.436Z" fill="#172B4D"/>
<path d="M19.6 109.6L17.4 110.6L16.5 108.6L15.6 109L16.5 111L15.4 111.5L14.2 109.1L13.4 109.5L15 112.9L20 110.6L19.6 109.6Z" fill="#172B4D"/>
<path d="M16.7908 103.243L11.6127 105.097L11.9835 106.132L17.1616 104.278L16.7908 103.243Z" fill="#172B4D"/>
<path d="M14.7 96.3L13.8 96.5L14.5 99.2L13 99.6L12.5 97.5L11.6 97.8L12.1 99.8L10.9 100.1L10.3 97.6L9.40002 97.8L10.3 101.4L15.7 100L14.7 96.3Z" fill="#172B4D"/>
<path d="M13.7 91.3C13.5 89.8 12.4 88.6 10.5 88.9C8.70005 89.2 7.90005 90.6 8.20005 92.1L8.50005 93.9L14 93.1L13.7 91.3ZM9.20005 92.7V92C9.00005 91.1 9.30005 90.1 10.7 89.9C12 89.7 12.6 90.5 12.8 91.5V92.2L9.30005 92.7H9.20005Z" fill="#172B4D"/>
<path d="M6.70573 79.809L6.69421 80.9089L12.9939 80.9749L13.0054 79.875L6.70573 79.809Z" fill="#172B4D"/>
<g opacity="0.2">
<path d="M119 93H42V97H119V93Z" fill="#172B4D"/>
</g>
<path d="M51.8 47.5C53.2 47.5 54.1 48.2 54.4 49.5L55.5 49.3C55.1 47.6 53.7 46.6 51.8 46.6C49.9 46.6 47.6 48 47.6 51C47.6 54 49.6 55.4 51.8 55.4C54 55.4 55 54.4 55.5 52.8L54.4 52.6C54.1 53.8 53.2 54.5 51.9 54.5C50.6 54.5 48.9 53.3 48.9 51.1C48.9 48.9 50.2 47.7 51.9 47.7L51.8 47.5Z" fill="white"/>
<path d="M59.6 48.9C57.7 48.9 56.4 50.2 56.4 52.1C56.4 54 57.7 55.3 59.6 55.3C61.5 55.3 62.8 54 62.8 52.1C62.8 50.2 61.5 48.9 59.6 48.9ZM59.6 54.4C58.4 54.4 57.5 53.5 57.5 52.1C57.5 50.7 58.3 49.8 59.6 49.8C60.9 49.8 61.7 50.7 61.7 52.1C61.7 53.5 60.9 54.4 59.6 54.4Z" fill="white"/>
<path d="M68.9 49.9C68.5 49.3 67.7 48.9 66.9 48.9C65 48.9 63.9 50.3 63.9 52.1C63.9 53.9 65 55.3 66.9 55.3C68.8 55.3 68.6 54.9 68.9 54.3V55.2H69.9V46.5H68.9V49.9ZM66.9 54.4C65.7 54.4 64.9 53.5 64.9 52.1C64.9 50.7 65.7 49.8 66.9 49.8C68.1 49.8 68.9 50.7 68.9 52.1C68.9 53.5 68.1 54.4 66.9 54.4Z" fill="white"/>
<path d="M74.3 48.9C72.4 48.9 71.3 50.3 71.3 52.1C71.3 53.9 72.5 55.3 74.3 55.3C76.1 55.3 76.8 54.6 77.1 53.4L76.1 53.2C75.9 54 75.3 54.4 74.3 54.4C73.3 54.4 72.4 53.6 72.3 52.3H77.2C77.2 52.2 77.2 52 77.2 51.8C77.2 50.2 76.1 48.9 74.2 48.9H74.3ZM72.4 51.4C72.6 50.4 73.3 49.8 74.3 49.8C75.3 49.8 76.1 50.5 76.2 51.4H72.4Z" fill="white"/>
<path d="M79.6 48.8C79.6 48 80.3 47.6 81.4 47.6C82.5 47.6 83.2 48.2 83.4 49.1L84.4 48.7C84.2 47.4 83 46.6 81.4 46.6C79.8 46.6 78.5 47.5 78.5 48.9C78.5 51.9 83.4 50.7 83.4 53C83.4 55.3 82.6 54.4 81.4 54.4C80.2 54.4 79.3 53.6 79.1 52.4L78 52.7C78.3 54.3 79.6 55.3 81.3 55.3C83 55.3 84.4 54.3 84.4 52.9C84.4 49.5 79.4 50.7 79.4 48.8H79.6Z" fill="white"/>
<path d="M88.6 54.4C87.4 54.4 86.6 53.5 86.6 52.1C86.6 50.7 87.4 49.8 88.6 49.8C89.8 49.8 90.1 50.3 90.3 51.1L91.3 50.9C91.1 49.7 90 48.9 88.6 48.9C87.2 48.9 85.5 50.2 85.5 52.1C85.5 54 86.7 55.3 88.6 55.3C90.5 55.3 91.1 54.6 91.4 53.3L90.4 53.1C90.2 53.9 89.6 54.4 88.7 54.4H88.6Z" fill="white"/>
<path d="M95.3 48.9C93.4 48.9 92.3 50.3 92.3 52.1C92.3 53.9 93.5 55.3 95.3 55.3C97.1 55.3 97.8 54.6 98.1 53.4L97.1 53.2C96.9 54 96.3 54.4 95.3 54.4C94.3 54.4 93.4 53.6 93.3 52.3H98.2C98.2 52.2 98.2 52 98.2 51.8C98.2 50.2 97.1 48.9 95.2 48.9H95.3ZM93.4 51.4C93.6 50.4 94.3 49.8 95.3 49.8C96.3 49.8 97.1 50.5 97.2 51.4H93.4Z" fill="white"/>
<path d="M102.9 48.9C101.9 48.9 101.2 49.4 100.8 50.2V49H99.8V55.2H100.8V52.5C100.8 50.9 101.5 49.9 102.7 49.9C103.9 49.9 104.1 50.5 104.1 51.3V55.2H105.1V51.1C105.1 49.8 104.2 48.9 102.9 48.9Z" fill="white"/>
<path d="M112.4 51.9C112.4 50.3 111.3 49 109.4 49C107.5 49 106.4 50.4 106.4 52.2C106.4 54 107.6 55.4 109.5 55.4C111.4 55.4 112 54.7 112.3 53.5L111.3 53.3C111.1 54.1 110.5 54.5 109.5 54.5C108.5 54.5 107.6 53.7 107.5 52.4H112.4C112.4 52.3 112.4 52.1 112.4 51.9ZM107.5 51.5C107.7 50.5 108.4 49.9 109.4 49.9C110.4 49.9 111.2 50.6 111.3 51.5H107.5Z" fill="white"/>
<path d="M69 60.4L68.5 61.7H69.5L69 60.4ZM67.5 62.9L68.8 59.6H69.3L70.6 62.9H70L69.7 62.1H68.4L68.1 62.9H67.5ZM72.7 63C71.9 63 71.1 62.4 71.1 61.3C71.1 60.2 71.9 59.6 72.7 59.6C73.5 59.6 74 60 74.1 60.7H73.6C73.6 60.4 73.2 60.1 72.7 60.1C72.2 60.1 71.6 60.5 71.6 61.3C71.6 62.1 72 62.5 72.7 62.5C73.4 62.5 73.5 62.3 73.6 61.8H74.1C73.9 62.5 73.4 62.9 72.7 62.9V63ZM76.3 60.4L75.8 61.7H76.8L76.3 60.4ZM74.8 62.9L76.1 59.6H76.6L77.9 62.9H77.3L77 62.1H75.7L75.4 62.9H74.8ZM78.7 62.9V59.6H79.7C80.6 59.6 81.4 60.2 81.4 61.2C81.4 62.2 80.6 62.8 79.7 62.8H78.7V62.9ZM79.2 62.4H79.7C80.3 62.4 80.8 62.1 80.8 61.2C80.8 60.3 80.2 60 79.7 60H79.2V62.3V62.4ZM82.4 62.9V59.6H84.5V60.1H82.9V60.9H84.2V61.4H82.9V62.4H84.5V62.9H82.3H82.4ZM85.6 62.9V59.6H86.2L87.2 62.1L88.2 59.6H88.8V62.9H88.3V60.7L87.4 62.9H87L86.1 60.7V62.9H85.6ZM90.9 62.9V61.5L89.8 59.6H90.4L91.2 61L92 59.6H92.6L91.5 61.5V62.9H91H90.9Z" fill="white"/>
</g>
<defs>
<clipPath id="clip0_144_1408">
<rect width="160" height="160" fill="white"/>
</clipPath>
</defs>
</svg>
