<svg width="223" height="98" viewBox="0 0 223 98" fill="none" xmlns="http://www.w3.org/2000/svg">
<g clip-path="url(#clip0_139_973)">
<path d="M223.5 52.5C213.9 54 201.3 56.2 188.8 59C170.2 62.9 156.2 64.4 139.6 60.5C137.2 60.4 134.7 60.5 132.3 60.5C126.2 60.7 120.5 60.8 118.1 57.6C116.4 55.3 116.5 51.2 118.5 45.3C118.7 44.7 119.2 43.7 119.7 42.6C121.1 39.7 122.8 36.1 121.3 34.7C119.8 33.6 116.7 37 112.8 41.5C111.4 43.1 110.3 44.4 109.6 45C105.8 49.4 101.3 53.2 96.9 56.9L96.4 57.3C96 57.7 95.7 57.9 95.4 57.7C95.1 57.5 94.9 57 95.1 56.3C96.7 50.8 98.6 45.2 100.5 39.9C104 30 107.6 19.8 109 9.10004C109.3 8.00004 110.3 8.10004 111.9 8.40004C112.6 8.60004 113.3 8.70004 113.8 8.60004H115.6C122.3 8.90004 129.1 9.10004 135.5 11.5C136.1 12.1 136.2 12.4 136.1 12.6C135.9 13.1 134.5 13.3 133.3 13.5C131.4 13.8 129.5 14.1 129.1 15.3V15.5H129.3C129.4 15.5 129.6 15.6 129.7 15.7C130.1 15.9 130.6 16.1 131.2 15.9C136.4 15.2 139.1 14.1 139 12.5C139 10.2 132.9 7.90004 127.7 7.50004C123.5 7.00004 119.2 6.80004 115 6.50004C113.5 6.50004 112.1 6.30004 110.6 6.20004C110 6.20004 109.6 6.20004 109.3 5.90004C108.9 5.50004 108.9 4.70004 108.9 3.80004C108.9 2.70004 108.9 1.40004 108 0.600044C107.4 4.36306e-05 106.8 -0.199956 106.2 -0.0999564C104.7 0.100044 103.4 1.90004 102.4 3.40004C102 3.90004 101.7 4.40004 101.3 4.80004C100.4 6.40004 98.8 6.40004 97.1 6.30004C96.3 6.30004 95.4 6.30004 94.6 6.40004C92.1 6.70004 89.4 6.90004 86.9 7.10004C76.3 7.90004 65.2 8.80004 56 14.3C52.1 16.4 50.1 18.6 50.2 20.9C50.3 25.6 58.6 29.5 64.6 32.3C65.4 32.7 66.2 33 66.8 33.3C67.2 33.6 68.1 34 69.2 34.5C71.2 35.4 73.9 36.6 74.1 37.7C74.1 37.9 74.1 38.2 73.7 38.4C70.7 42.6 67.6 46.6 64.5 50.2C59.3 56.8 53.7 63.2 48.3 69.4C46.1 71.9 43.9 74.5 41.7 77.1C41.1 77.8 40.2 78.9 39 80.2C32.3 87.9 25.8 95.5 27.5 97.7C27.8 98.1 28.3 98.3 29 98.3C30.5 98.3 32.8 97.5 36.3 95.9C48.3 90.2 60.4 83.4 73.5 75.2C81.1 69.9 89.3 63.6 90 55.7C90.4 51.1 88.3 46.5 83.6 41.7C82.6 40.6 83.4 39.5 84.2 38.3C84.5 37.9 84.8 37.5 84.9 37.2C88.1 32.6 90.8 27.6 93.4 22.7C94.1 21.4 94.8 20.1 95.5 18.8C96.2 17.8 96.9 16.3 97.6 14.8C98.9 12 100.4 8.80004 102.3 8.10004C103.4 7.90004 105.6 7.80004 106.3 8.70004C106.6 9.10004 106.7 9.60004 106.4 10.3C105.7 12.6 105.3 15.1 104.9 17.4C104.3 20.9 103.6 24.5 102.2 27.9C101.3 30.4 100.5 32.9 99.6 35.4C97.9 40.3 96.1 45.4 94.5 50.4C94.3 51.2 94 52 93.7 52.8C93.1 54.4 92.5 56 92.5 57.7C92.6 58.6 93.2 59.4 94.1 59.7C94.9 60 95.8 59.9 96.5 59.4C101.6 55.8 105.9 51.3 110.1 46.8C112.9 43.8 115.8 40.7 118.9 38C119.1 39.1 118.6 40.1 118.1 41.1C117.9 41.5 117.7 41.8 117.6 42.2C116.4 44.5 115.6 47 115.1 50.4C114.1 53 114.6 56.1 116.3 58.7C117.9 61.1 120.3 62.4 122.8 62.4H126.3C128.7 62.4 131.1 62.4 133.6 62.4C137.8 62.2 141.9 62.9 145.9 63.6C150.4 64.4 155.1 65.2 159.8 64.7C159.8 64.8 160 64.8 160 64.8C168.5 65.1 176.9 63.4 185 61.7C188.8 60.9 192.6 60.1 196.5 59.5C200.9 58.6 205.4 57.8 209.7 57C213.4 56.3 217.2 55.7 221 54.9C221.2 54.9 221.4 54.8 221.6 54.7C222.5 54.4 223.7 54.1 223.7 52.9V52.6H223.4L223.5 52.5ZM106.7 5.80004C106.5 6.00004 105.9 6.10004 104.9 6.10004C104.3 6.20004 103.7 5.90004 103.1 5.60004C103.8 4.10004 105.3 2.10004 106.2 2.30004C106.6 2.30004 106.9 3.00004 107 4.00004C107 5.10004 107 5.60004 106.8 5.80004H106.7ZM38 84.4C39.1 83.1 40.4 81.7 41.6 80.3C53 67.3 64.2 53.8 75.1 40C74.9 41.1 74 43.2 73.2 45.1C71.2 49.9 69.9 53.3 70.9 54.3C71.3 54.7 71.8 54.7 72.7 54.3C75.2 52 77.1 49.1 79 46.4C79.4 45.8 79.9 45.1 80.3 44.5C80.9 43.4 81.4 42.8 81.9 42.8C82.2 42.8 82.5 43 82.8 43.4C86.6 47.5 88.2 51.6 87.8 55.5C87.2 60.7 83.3 65.6 75.4 71.2C65 78.5 53.8 84.5 44.3 89.5C33.3 95.5 30.4 96 30 95.5C29.2 94.6 33.7 89.4 38.1 84.4H38ZM77.6 39.8C77.7 39.8 78.2 39.9 78.7 40.2C79.2 40.4 79.6 40.8 79.7 41.2C79.7 41.4 79.7 41.7 79.6 41.9C79.3 42.2 78.7 43.1 77.7 44.7C76.6 46.5 74.2 50.3 73.5 50.3C73.5 50.3 73.5 50.3 73.5 50.1C73.8 48 74.7 46.1 75.7 44.1C76.2 43 76.8 41.8 77.2 40.6C77.4 40.1 77.5 39.8 77.6 39.8ZM81.1 39.3C81.1 39.3 80.9 39.3 80.7 39C79.9 38.6 79.2 38.1 79 37.5C79 37.2 79 36.8 79.3 36.3C79.8 35.3 80.3 34.4 80.8 33.4C81.2 32.5 81.7 31.7 82.1 30.9C84.9 26 87.7 21 90 16.6C90.1 16.2 90.4 15.7 90.7 15.2C91.5 13.9 92.5 12.2 91.1 11.1C91.1 11.1 91.1 11.1 91 11.1C90.7 11.1 90.3 11.4 90.2 11.6C88.7 14.1 87.3 16.7 85.8 19.2C82.9 24.4 79.8 29.8 76.4 34.8C75.3 36.3 70.7 33.6 67.3 31.7C65.3 30.6 63.7 29.6 62.7 29.3C55.5 26.1 52 23.4 52.1 20.8C52.1 18.2 56.1 15.6 64.3 12.5C74.8 9.60004 85.8 8.80004 97.2 8.20004H97.5C97.9 8.30004 98.2 8.50004 98.3 8.70004C98.4 9.00004 98.3 9.40004 98.2 9.80004C96.7 12.8 95 15.7 93.5 18.6C92.9 19.7 92.3 20.7 91.7 21.8C88.9 27.3 85.4 33 81.5 38.8C81.3 39.1 81.2 39.2 81.1 39.2V39.3Z" fill="#172B4D"/>
</g>
<defs>
<clipPath id="clip0_139_973">
<rect width="222.727" height="98" fill="white" transform="translate(0.136353)"/>
</clipPath>
</defs>
</svg>
