<svg width="223" height="98" viewBox="0 0 223 98" fill="none" xmlns="http://www.w3.org/2000/svg">
<g clip-path="url(#clip0_139_973)">
<path d="M79.2324 42.0382C79.7335 41.2836 79.2595 40.398 78.1987 39.9371C76.782 39.3158 76.7722 39.3404 76.299 40.5382L76.2937 40.5516M79.2324 42.0382L79.1511 41.9403C79.146 41.9445 79.141 41.9489 79.1358 41.9534M79.2324 42.0382C78.931 42.2887 78.2085 43.4457 77.3435 44.831C75.4625 47.8435 72.9073 51.9356 72.5424 50.1311M79.2324 42.0382L79.1264 41.9678C79.1296 41.963 79.1327 41.9582 79.1358 41.9534M79.1358 41.9534C79.3505 41.6202 79.3541 41.2646 79.1876 40.9349C79.0161 40.5951 78.6593 40.276 78.1479 40.0538L78.1475 40.0536C77.79 39.8969 77.5299 39.7848 77.3298 39.721C77.1271 39.6564 77.0118 39.6505 76.9329 39.677C76.859 39.7019 76.7893 39.765 76.7047 39.9185C76.6201 40.0719 76.5339 40.2901 76.4138 40.594L76.4133 40.5951L76.2937 40.5516M79.1358 41.9534C79.0684 42.0127 78.9905 42.1019 78.9053 42.2106C78.8121 42.3294 78.7052 42.478 78.587 42.6504C78.3507 42.9952 78.0658 43.4399 77.7505 43.9409C77.5862 44.2021 77.4135 44.4787 77.2348 44.7648C76.727 45.5781 76.1711 46.4684 75.622 47.3007C74.8783 48.4281 74.155 49.4368 73.5882 49.9994C73.4472 50.1394 73.3188 50.2487 73.2049 50.3247C73.0894 50.4018 72.9982 50.4384 72.9299 50.4457C72.8692 50.4523 72.8258 50.4365 72.7875 50.3958C72.7453 50.351 72.7026 50.2683 72.6717 50.1273M76.2937 40.5516L76.412 40.5984L76.4127 40.5967C75.9766 41.7961 75.4216 42.9446 74.8717 44.0828C74.6728 44.4944 74.4746 44.9047 74.2828 45.3155C73.5617 46.8608 72.9284 48.4219 72.6717 50.1273M76.2937 40.5516C75.8599 41.745 75.3088 42.8854 74.7595 44.0223C73.8113 45.9848 72.8683 47.9365 72.5424 50.1311M72.5424 50.1311L72.6672 50.1058C72.6686 50.1131 72.6701 50.1203 72.6717 50.1273M72.5424 50.1311L72.6683 50.1498C72.6694 50.1423 72.6706 50.1348 72.6717 50.1273M118.414 37.726C118.595 38.4858 118.449 39.189 118.174 39.8846C118.025 40.2625 117.838 40.6352 117.647 41.0132L117.61 41.0861C117.432 41.4371 117.252 41.7931 117.099 42.1553C115.731 44.7386 115.047 47.4952 114.603 50.3555C113.609 52.9343 114.131 55.8884 115.59 58.1926C117.051 60.501 119.466 62.1764 122.271 62.1649C123.464 62.1604 124.656 62.1548 125.848 62.1493C128.229 62.1383 130.609 62.1272 132.992 62.1243L132.997 62.1241C137.165 61.9451 141.242 62.6358 145.336 63.3293C145.618 63.3771 145.9 63.4249 146.182 63.4724C150.51 64.2012 154.862 64.8657 159.335 64.4242V64.4244V64.4247V64.425V64.4253V64.4256V64.4259V64.4263V64.4266V64.4269V64.4272V64.4275V64.4278V64.4282V64.4285V64.4288V64.4291V64.4294V64.4297V64.4301V64.4304V64.4307V64.431V64.4313V64.4317V64.432V64.4323V64.4326V64.4329V64.4332V64.4336V64.4339V64.4342V64.4345V64.4348V64.4352V64.4355V64.4358V64.4361V64.4364V64.4367V64.4371V64.4374V64.4377V64.438V64.4383V64.4386V64.439V64.4393V64.4396V64.4399V64.4402V64.4406V64.4409V64.4412V64.4415V64.5637L159.457 64.5687C165.667 64.82 171.748 63.9651 177.788 62.8156C180.002 62.3941 182.209 61.9335 184.415 61.4731C188.232 60.6766 192.046 59.8807 195.888 59.2896L195.888 59.2898L195.896 59.2882C199.956 58.4166 204.038 57.6816 208.124 56.9563C208.453 56.898 208.782 56.8397 209.111 56.7813C212.868 56.1153 216.627 55.4489 220.37 54.684L220.38 54.6821L220.388 54.6788C220.561 54.6159 220.751 54.5595 220.952 54.4999C221.024 54.4787 221.097 54.457 221.171 54.4345C221.449 54.3499 221.738 54.2545 222 54.1277C222.262 54.0008 222.504 53.8392 222.684 53.6185C222.865 53.3956 222.979 53.1181 222.991 52.7699L222.996 52.6153L222.844 52.6397C211.427 54.4699 199.592 56.5353 188.159 59.0936C170.903 62.7434 156.353 64.7177 138.921 60.5763L138.91 60.5736L138.898 60.573C136.473 60.4469 133.982 60.5114 131.582 60.5736C130.752 60.5951 129.933 60.6163 129.131 60.6293C126.004 60.6798 123.145 60.6043 120.902 59.9415C118.667 59.2811 117.058 58.0426 116.4 55.7675C115.738 53.4776 116.033 50.1161 117.678 45.1964L117.678 45.1965L117.68 45.1923C117.851 44.6142 118.233 43.7896 118.686 42.8397C118.746 42.7135 118.808 42.5852 118.87 42.4551C119.274 41.6109 119.714 40.6922 120.092 39.7885C120.528 38.7468 120.886 37.7154 121.012 36.8322C121.137 35.9545 121.039 35.1826 120.509 34.709L120.509 34.7088L120.502 34.7035C120.199 34.4679 119.812 34.4643 119.394 34.6031C118.976 34.7418 118.504 35.0291 118 35.4148C116.991 36.1874 115.822 37.3804 114.658 38.6655C113.801 39.6121 112.943 40.6128 112.15 41.5372C111.866 41.8686 111.59 42.1901 111.326 42.4958C110.319 43.6607 109.486 44.5857 108.981 44.9688L108.97 44.9771L108.961 44.9876C105.163 49.439 100.69 53.1452 96.1929 56.8715C96.0392 56.9989 95.8854 57.1264 95.7317 57.2538L95.7243 57.2599L95.718 57.267C95.4425 57.5753 95.1904 57.7195 94.9809 57.759C94.7761 57.7977 94.5984 57.7393 94.4556 57.6112C94.1615 57.3475 94.0074 56.7742 94.1751 56.1518C95.7503 50.605 97.6562 45.1713 99.5616 39.7391C100.374 37.4225 101.187 35.1061 101.973 32.7814C104.603 25.0109 106.942 17.1536 108.018 8.90817C108.139 8.40324 108.396 8.14147 108.73 8.01242C109.077 7.87829 109.524 7.88143 110.026 7.94888C110.364 7.99416 110.713 8.06607 111.064 8.13835C111.236 8.17385 111.409 8.20943 111.581 8.24199C112.089 8.33828 112.59 8.40775 113.01 8.34854C113.598 8.36985 114.188 8.38973 114.777 8.40962C121.549 8.63812 128.351 8.8676 134.772 11.2811C135.164 11.6723 135.358 11.9749 135.419 12.2068C135.449 12.3217 135.446 12.4167 135.42 12.4978C135.394 12.5794 135.342 12.656 135.26 12.7289C135.094 12.8779 134.818 12.9994 134.453 13.1021C134.09 13.204 133.656 13.2833 133.184 13.3571C132.969 13.3909 132.746 13.4235 132.519 13.4566C131.76 13.5675 130.961 13.6843 130.276 13.8701C129.83 13.9911 129.423 14.1436 129.101 14.3483C128.778 14.5537 128.533 14.8169 128.428 15.1604L128.391 15.2811L128.511 15.3191C128.648 15.3623 128.784 15.4187 128.926 15.4778L128.932 15.4804C129.07 15.5378 129.214 15.5976 129.359 15.6437C129.652 15.7367 129.967 15.7796 130.302 15.6426C132.168 15.4075 133.646 15.117 134.788 14.7864C135.931 14.4553 136.744 14.0817 137.271 13.677C137.8 13.271 138.053 12.8224 138.04 12.3479C138.027 11.8801 137.754 11.424 137.317 10.997C136.443 10.1427 134.845 9.34056 132.968 8.71306C131.086 8.08435 128.907 7.62532 126.855 7.46615C122.643 6.97612 118.402 6.73016 114.166 6.48445C112.697 6.39923 111.228 6.31404 109.761 6.21871L109.753 6.21818L109.745 6.2187C108.912 6.27142 108.489 6.05891 108.262 5.72641C108.023 5.37818 107.971 4.86511 107.967 4.24995C107.966 4.08859 107.968 3.92061 107.971 3.74876C107.977 3.28149 107.984 2.7857 107.925 2.31714C107.844 1.67096 107.636 1.04913 107.117 0.58124C106.448 -0.0528165 105.783 -0.226239 105.14 -0.0772912C104.509 0.0689678 103.921 0.521278 103.383 1.08581C102.843 1.65237 102.34 2.34706 101.883 2.99925C101.815 3.09638 101.748 3.19246 101.682 3.287C101.302 3.83163 100.957 4.32511 100.647 4.6753L100.638 4.68515L100.632 4.69658C100.274 5.3226 99.8275 5.70474 99.3235 5.93806C98.8168 6.17271 98.2454 6.26008 97.6355 6.28406C97.207 6.30091 96.7678 6.28649 96.3218 6.27186C96.1301 6.26556 95.9371 6.25923 95.7433 6.25532C95.1064 6.24248 94.4663 6.2563 93.8647 6.39162C91.3441 6.65595 88.7722 6.85491 86.1808 7.05537C82.1481 7.36732 78.0683 7.68293 74.0615 8.25422C67.4706 9.19396 61.0472 10.8282 55.2808 14.2871C51.54 16.2775 49.8322 18.2324 49.5532 20.1289C49.2737 22.0295 50.4377 23.8069 52.2683 25.4172C54.1035 27.0316 56.6411 28.5072 59.1852 29.806C60.8058 30.6334 62.4369 31.3928 63.8938 32.0711C64.7175 32.4546 65.4854 32.8122 66.1643 33.1414C66.3517 33.2848 66.6341 33.4432 66.9733 33.6132C67.321 33.7875 67.7363 33.9778 68.1852 34.1805C68.2915 34.2285 68.3998 34.2772 68.5095 34.3266C69.3285 34.6952 70.2309 35.1014 71.0441 35.5305C71.9704 36.0192 72.7617 36.5281 73.1829 37.0317C73.3923 37.2822 73.4988 37.518 73.4993 37.7389C73.4998 37.9554 73.3984 38.1842 73.134 38.424L73.1236 38.4334L73.1155 38.4449C70.2382 42.5259 67.1258 46.4271 63.9618 50.2945L63.9605 50.2961C58.7708 56.8588 53.2866 63.1819 47.8001 69.5075C45.5861 72.0602 43.3717 74.6132 41.1761 77.1826L41.174 77.1852C40.6022 77.8915 39.6467 78.9784 38.4899 80.2943C37.6401 81.261 36.6816 82.3512 35.6868 83.505C33.3415 86.2249 30.7988 89.2929 29.0274 91.9002C28.1422 93.203 27.4452 94.3972 27.0628 95.3791C26.8717 95.8698 26.7564 96.3144 26.7387 96.6971C26.7211 97.0806 26.8013 97.4132 27.0142 97.6632C27.2272 97.9132 27.5559 98.0606 27.9934 98.1092C28.4301 98.1576 28.9863 98.1093 29.6729 97.9578C31.0465 97.6546 32.9709 96.9319 35.5631 95.6941C48.3751 89.5824 60.7482 82.5761 72.7725 75.0507L72.7725 75.0508L72.7778 75.0471C79.1191 70.6235 85.1486 65.8859 87.8376 60.4555C89.1848 57.7348 89.6951 54.8374 88.986 51.7207C88.2777 48.6071 86.3552 45.2868 82.8596 41.7114C82.5078 41.3233 82.3733 40.9382 82.372 40.5574C82.3707 40.1714 82.5062 39.7774 82.7171 39.3761C82.9281 38.9748 83.2085 38.5769 83.4879 38.1816L83.4974 38.1683C83.7694 37.7834 84.0409 37.3993 84.2309 37.0289C87.3831 32.3965 90.0392 27.4822 92.6951 22.5682C93.406 21.2528 94.1169 19.9375 94.8372 18.6277C95.3551 17.9091 95.8594 16.9454 96.3701 15.8936C96.5682 15.4857 96.767 15.065 96.9682 14.6393C97.2897 13.9589 97.6175 13.2654 97.9584 12.5896C98.5118 11.4928 99.0938 10.4554 99.7258 9.62291C100.356 8.79278 101.027 8.17901 101.756 7.90583C102.651 7.74354 103.975 7.66021 104.949 7.95637C105.437 8.10467 105.82 8.34262 106.027 8.69492C106.233 9.0437 106.283 9.53187 106.048 10.2176L106.048 10.2175L106.046 10.2243C105.387 12.5644 104.961 14.96 104.536 17.3467C104.43 17.9424 104.324 18.5376 104.215 19.1312C103.667 22.107 103.03 25.0485 101.853 27.8548L101.853 27.8547L101.85 27.8628C100.996 30.3542 100.126 32.8419 99.2557 35.3306C97.5132 40.3132 95.7693 45.2997 94.1524 50.3271L94.1523 50.327L94.1509 50.3322C93.9284 51.1384 93.6352 51.9393 93.339 52.7486C93.2012 53.1249 93.0628 53.5031 92.9305 53.8844C92.5159 55.0797 92.1655 56.297 92.1105 57.545L92.11 57.5557L92.1114 57.5664C92.3393 59.3913 94.4594 60.3354 95.8926 59.2349C100.218 56.2223 103.933 52.5039 107.54 48.6953C108.18 48.0206 108.815 47.3431 109.451 46.6663C112.358 43.5686 115.253 40.4828 118.414 37.726ZM40.8501 80.2539C52.4753 66.9677 63.6896 53.458 74.6307 39.6004C74.6301 39.6542 74.6264 39.7146 74.6189 39.7819C74.5965 39.9853 74.5429 40.2358 74.4622 40.5279C74.3007 41.1118 74.0348 41.847 73.7098 42.6755C73.4076 43.446 73.0556 44.2937 72.6913 45.1711L72.6096 45.3677C72.2167 46.3144 71.8129 47.2908 71.4459 48.2352C70.7145 50.1174 70.121 51.8929 70.0599 53.0586C70.0297 53.6346 70.1263 54.1149 70.4634 54.3595C70.802 54.6051 71.3198 54.5678 72.0093 54.2791L72.0298 54.2705L72.0462 54.2554C74.5332 51.9694 76.4251 49.1784 78.3023 46.4092C78.7284 45.7806 79.1538 45.1531 79.5852 44.5329L79.5899 44.5261L79.5936 44.5188C79.8978 43.9324 80.3281 43.2579 80.8127 42.9255C81.0513 42.7617 81.2908 42.6894 81.5299 42.7366C81.7705 42.7841 82.0384 42.9582 82.321 43.3467L82.3252 43.3524L82.3299 43.3577C84.9638 46.2406 86.4722 48.9643 87.0941 51.5407C87.7155 54.1154 87.4537 56.5515 86.5331 58.8648C84.6891 63.4991 80.2011 67.6427 74.8663 71.3909C65.0145 78.3084 54.3897 84.1659 43.7153 89.6869L43.7131 89.6881C37.6587 92.9725 33.7821 94.794 31.5382 95.487C30.9781 95.66 30.5243 95.7611 30.1667 95.798C29.8064 95.8352 29.5578 95.8056 29.3978 95.7318C29.2479 95.6627 29.1686 95.5521 29.1456 95.3896C29.1212 95.2171 29.1606 94.9818 29.2738 94.6802C29.4996 94.0787 29.996 93.2708 30.7064 92.292C31.4151 91.3156 32.3302 90.178 33.3856 88.919C34.5511 87.5289 35.8838 85.9952 37.2961 84.3701C38.4439 83.0492 39.6443 81.6678 40.8501 80.2539ZM96.9127 7.74001C97.4554 7.89802 97.741 8.18884 97.856 8.53603C97.9823 8.91718 97.9136 9.39737 97.6886 9.90592C96.1787 12.8791 94.5579 15.7957 92.9361 18.714C92.344 19.7796 91.7517 20.8454 91.1646 21.9143L91.1631 21.9172C88.1368 27.7817 84.6907 33.4482 80.9958 38.9078L80.9958 38.9077L80.9932 38.9119C80.8036 39.2168 80.6558 39.3497 80.5223 39.3769C80.3974 39.4023 80.2301 39.3438 79.9705 39.0951L79.957 39.0822L79.9404 39.0737C79.3054 38.749 78.7126 38.4019 78.3951 37.9604C78.2394 37.744 78.1524 37.5078 78.158 37.2402C78.1636 36.9707 78.2634 36.657 78.5039 36.2877L78.5042 36.2879L78.5084 36.2803C79.0106 35.3814 79.4854 34.4693 79.9576 33.5583L80.0451 33.3896C80.488 32.535 80.9299 31.6823 81.3925 30.8406C84.1382 26.1394 86.7166 21.3436 89.2714 16.5362L89.2763 16.527L89.2796 16.5171C89.4034 16.1496 89.6391 15.7285 89.9061 15.2716C89.9406 15.2125 89.9756 15.1529 90.0109 15.0928C90.2458 14.6928 90.4928 14.272 90.6883 13.8542C90.9129 13.3744 91.0767 12.884 91.0726 12.4175C91.0685 11.9434 90.8909 11.5013 90.4511 11.1287L90.4338 11.1141L90.4127 11.1063C90.3368 11.0785 90.2546 11.0957 90.1938 11.1162C90.1275 11.1385 90.0581 11.1747 89.9933 11.2167C89.8662 11.2988 89.7337 11.4179 89.6635 11.5358L89.6633 11.5363C88.1808 14.0545 86.7458 16.6001 85.3114 19.1448C82.3293 24.4349 79.3495 29.721 75.9501 34.7491C75.7481 35.0282 75.4414 35.1799 75.0343 35.2215C74.623 35.2636 74.1174 35.192 73.5387 35.029C72.3819 34.7032 70.9714 34.0237 69.5165 33.2353C68.572 32.7236 67.6146 32.1693 66.6995 31.6396C66.2051 31.3533 65.7231 31.0743 65.2621 30.8129C63.9617 30.0757 62.8208 29.4744 62.0666 29.2747C58.0631 27.5054 55.2637 25.8899 53.5406 24.3819C51.8147 22.8717 51.1947 21.4942 51.4774 20.1935C51.7631 18.8788 52.9796 17.5873 55.0723 16.2791C57.158 14.9754 60.0857 13.6725 63.7429 12.323C74.4564 9.33708 85.6548 8.58294 96.7542 7.98202L96.8435 7.97718L96.8692 7.89147C96.8829 7.84566 96.8955 7.80113 96.9077 7.75772L96.9082 7.75615C96.9097 7.75075 96.9112 7.74537 96.9127 7.74001ZM104.242 6.22297L104.229 6.22281L104.217 6.22523C103.534 6.35588 102.967 6.06447 102.34 5.74228C102.291 5.71736 102.243 5.69225 102.193 5.66714C102.394 5.21824 102.718 4.65233 103.103 4.10578C103.52 3.51342 104.003 2.95254 104.47 2.58952C104.946 2.21847 105.356 2.09061 105.66 2.2482C105.815 2.32824 105.964 2.49109 106.089 2.77963C106.214 3.06779 106.311 3.47227 106.366 4.01926C106.396 4.57248 106.408 4.98702 106.377 5.30083C106.346 5.61517 106.274 5.80676 106.154 5.93219C106.033 6.05765 105.844 6.13758 105.531 6.18125C105.217 6.22492 104.8 6.22976 104.242 6.22297Z" fill="#172B4D" stroke="#172B4D" stroke-width="0.254545"/>
</g>
<defs>
<clipPath id="clip0_139_973">
<rect width="222.727" height="98" fill="white" transform="translate(0.136353)"/>
</clipPath>
</defs>
</svg>
